<?xml version="1.0" encoding="UTF-8"?>
<svg id="_レイヤー_1" data-name="レイヤー_1" xmlns="http://www.w3.org/2000/svg" version="1.1" viewBox="0 0 185 33">
  <!-- Generator: Adobe Illustrator 30.4.0, SVG Export Plug-In . SVG Version: 2.1.4 Build 226)  -->
  <defs>
    <style>
      .st0 {
        fill: #691c24;
      }
    </style>
  </defs>
  <path class="st0" d="M26.34,7.62h0s0-.04,0-.06v.06h0Z"/>
  <path class="st0" d="M10.85,4.07c0-.23,0-.47-.01-.69,0-.07,0-.31,0-.38,0-.24-.02-.88-.03-1.09.02-.43,0-1.04-.01-1.35,0-.11-.09-.19-.2-.2h-.34c-.49,0-1-.06-1.48.05-.27.06-.55.01-.82,0-.33-.02-.66-.04-.99-.05-.17,0-.33,0-.49.03-.09.02-.18.06-.27.06-.12,0-.23-.03-.35-.06-.31-.08-.55-.05-.84.02-.29.07-.68.06-.98.04-.23-.01-.42-.08-.66-.03-.14.03-.28.07-.4.01-.04-.01-.07-.04-.11-.06-.12-.05-.25,0-.38.02-.29.03-.61-.14-.87,0-.2.11-.38-.03-.6-.02-.26,0-.51.01-.77.01-.13,0-.22.1-.22.21,0,.22,0,.47,0,.72v1.47C0,3.2.01,3.81.01,4.23c0,.11.09.21.21.2.25,0,.5-.02.75,0,.26.02.43.12.69.02.05-.02.11-.03.15,0,.04.03.06.09.11.1.04,0,.07-.03.11-.05.05-.03.12-.04.18-.05.33-.04.65-.09.98-.1.22,0,.46,0,.68.02,0,.25,0,.34,0,.59s-.02.5,0,.76c0,.2,0,.25-.06.44-.05.17-.04.36.01.53.03.08.07.15.09.24.03.15-.01.31,0,.47,0,.12.05.23.07.35.03.2,0,.4,0,.6-.02.35.03.31-.04.65-.07.35.01.67-.02,1.02-.02.19,0,.39,0,.58.06.54-.04,1.08-.01,1.62.01.32,0,.62-.02.94-.01.33-.02.65-.03.98,0,.12,0,.25,0,.37v.19c0,.31,0,.61,0,.92,0,.13.02.28-.05.4-.02.03-.04.06-.05.09-.02.05,0,.11.02.17.09.27.2.51.2.8,0,.31-.01.62,0,.94,0,.21,0,.42,0,.62,0,.11.09.21.21.2.25,0,.5,0,.75,0h.59c.2,0,.4,0,.59,0,.24,0,.48,0,.72.01.11,0,.2-.09.21-.2,0-.29.04-.58.05-.87,0-.33,0-.65,0-.97,0-.55.03-1.1,0-1.65,0-.13-.05-.24-.07-.37-.01-.16.06-.31.05-.47,0-.13-.06-.26-.03-.4.02-.14.13-.25.12-.39,0-.09-.06-.16-.08-.25-.06-.2,0-.46,0-.66.01-.23.02-.46.01-.68,0-.55-.03-1.09-.03-1.64v-.74c0-.52,0-.62-.05-1.14-.02-.17-.04-.34-.02-.5.02-.15.08-.3.05-.44-.01-.08-.05-.15-.07-.23-.04-.19.04-.51.05-.72.03-.48.05-.95.07-1.42,0-.19,0-.22,0-.41,0-.09,0-.19,0-.29,0-.09,0-.11.1-.12.14-.01.29,0,.43,0,.24,0,.54.05.77-.02.2-.06.29-.11.51.02.06.04.12.08.19.09.06,0,.12-.03.19-.05.4-.18.92-.04,1.35-.05.08-.08.12-.13.2-.21h0Z"/>
  <path class="st0" d="M22.83,4.15c.03-.15-.07-.29-.15-.43-.11-.19-.05-.38-.05-.59,0-.27,0-.54,0-.81,0-.53-.02-1.08-.02-1.6,0-.11-.1-.21-.21-.2-.16,0-.31,0-.46,0-.1,0-.2,0-.3,0h-1.18c-.11,0-.83-.02-1.09-.03-.07,0-.13.05-.13.12v.03s0,.12.01.28c-.02.21-.07.29-.07.65,0,.03.05.38.04.41-.04.13-.15.21-.08.36.02.04.05.08.06.12.02.06.02.13.02.19-.01.22-.06.44.01.64.02.06.06.13.07.2.01.09-.02.18-.05.27-.1.3-.04.57-.05.87,0,.34-.01.68,0,1.01,0,.44.02.67.04,1.12,0,.32,0,.66.03.97,0-.04-1.28.01-1.38.01-.74,0-1.09-.02-1.62-.03h-.82s-.16-1.56-.18-1.76c-.01-.25.03-.49.07-.74.07-.48.09-.97.02-1.45-.02-.14-.05-.29-.04-.43,0-.11.04-.23.06-.35.05-.36-.04-.74-.05-1.1,0-.47,0-.93,0-1.38,0-.11-.09-.2-.2-.2h-.17c-.45,0-1.02.04-1.47.04h-1.41c-.11,0-.2.09-.2.21.01.65.05,1.33,0,1.97,0,0-.01-.02-.01-.01,0,.34.06.68.06,1.01,0,.27-.17.49-.08.77.03.08.07.16.1.25.04.13.02.28.01.42-.02.22-.04.45-.11.67-.02.08-.05.16-.05.24,0,.09.06.18.08.27.04.18-.07.37-.06.56,0,.11.06.21.09.31.07.27,0,.57.05.85.05.24.14.41.06.64-.04.12-.18.58-.09.68h-.01c.07.06.04.44.04.55,0,.19.01.37,0,.56,0,.35-.02.69-.03,1.04-.01.36-.03.71-.02,1.07,0,.52,0,1.05.01,1.58.01.43.03.86.04,1.29,0,.37.08.72.09,1.09l-.02-.2c0,.58,0,1.15,0,1.73,0,.18-.06.71.09.84.2.16.56.05.79.09.46.08.93-.05,1.4-.02h.94v-1.92c0-.08,0-.17-.02-.25-.02-.07-.08-.09-.07-.18,0-.06.04-.13.06-.19.07-.24-.05-.5-.08-.75-.02-.17,0-.34.01-.51.06-.58.08-1.17.06-1.75,0-.32-.05-.61-.04-.93,0-.1,0-.97-.01-.97.36,0,.71,0,1.06,0,.65,0,.64.06,1.28,0,.15-.01.89-.05,1.02.04.29-.03.57-.03.86-.05,0,.31-.02.61-.02.92,0,.34.01.47.02.8.02.67.04,1.35.03,2.1-.03.41-.04.91-.05,1.45v.85c0,.44,0,.89,0,1.34.34,0,.81,0,1.16,0,.2,0,.4,0,.59,0s.4,0,.6-.01c.25,0,.49,0,.73,0,.11,0,.2-.1.2-.21,0-.53-.02-1.06-.04-1.59-.02-.68-.16-1.35.02-2.03.03-.1.06-.21.04-.32-.01-.07-.06-.14-.08-.21-.1-.29.13-.6.07-.9-.01-.07-.05-.15-.06-.23-.01-.1,0-.2.02-.3.1-.54.11-1.09.02-1.63-.02-.13-.04-.27,0-.39.02-.06.07-.11.09-.17.07-.17-.03-.39-.03-.57,0-.26,0-.52,0-.79,0-.49-.01-.97-.04-1.46-.01-.27-.02-.53,0-.8.02-.48-.08-.96.04-1.43.05-.18.13-.36.12-.55-.02-.25-.2-.49-.13-.73.04-.11.13-.2.15-.32v.03Z"/>
  <path class="st0" d="M27.47,4.22h.16c.55,0,1.08,0,1.62-.06.13-.01.26,0,.4.03.32.04.64.07.97.06.04,0,.09,0,.13-.02.03-.02.06-.05.1-.06.03,0,.06.01.1.03.14.06.48-.03.64-.03.2,0,2.02,0,2.02,0,0,0,.04-.12,0-.4-.05-.28.03-1.12,0-1.6-.02-.33-.03-.47-.03-.63,0-.13,0-.35.01-.52,0-.16,0-.33,0-.48,0-.12-.1-.23-.22-.23-.36,0-.71,0-1.04-.01h-.64c-.36,0-.72.01-1.08.03-.16,0-.34-.01-.49.02-.1.02-.18.11-.28.12-.28.04-.64-.18-.93-.22-.36-.05-.73-.03-1.07.07-.1.03-.2.07-.3.08-.19.01-.36-.07-.55-.09-.28-.04-.55.07-.83.1-.28.03-.56-.03-.85-.04-.28,0-.55,0-.82-.01-.15,0-.26.11-.27.26,0,.5-.02,1.02-.03,1.6,0,.48,0,1.02,0,1.7,0,1.22.02,2.53.03,3.73.09.54.04,1.09.04,1.64,0,.54.02,1.05.04,1.57.01.47-.04.92-.03,1.38,0,.29.03.59-.05.87-.09.29-.29.59-.17.86.04.08.1.15.15.23.05.1.07.22.08.34.03.29.06.59.05.89-.02.35-.11.7-.07,1.05.04.35.11.66.1,1.02,0,.36-.02.71-.03,1.05,0,.17.13.31.29.32.1,0,.2,0,.3,0,.2,0,.47,0,.55,0,.53,0,1.07,0,1.6,0,.59.02,1.17.22,1.76.11.09-.01.18-.04.26,0,.04.02.07.05.1.06.1.04.21-.02.31-.05.1-.02.21-.01.31,0,.43.02.82-.12,1.24-.14.51-.02,1.03-.01,1.54,0h.62c.12,0,.22-.1.22-.22v-.79c0-.2,0-.4,0-.6,0-.42,0-1.42-.02-1.84,0-.18-.15-.33-.33-.33-.27,0-.55,0-.82,0-.51,0-1.02,0-1.53.07-.04,0-.07,0-.11,0-.04,0-.07-.01-.11-.02-.15-.04-.3-.04-.45,0-.08.02-.16.05-.24.03-.06-.01-.11-.06-.17-.08-.06-.02-.13-.01-.2,0-.19.02-1.95.16-1.96.06-.04-.49.01-.43-.04-.92l.06-.33c.02-.53,0-1.03,0-1.53-.01-.35-.07-.46-.05-.81,0-.01,1.32-.03,1.47,0,.23.03.59-.13.77-.04.03.01.06.04.1.05.12.05.48-.05.62-.05.18,0,.32-.15.32-.33,0-.13-.03-.38,0-.5.03-.17.16-.29.12-.48-.01-.06-.04-.12-.06-.19-.01-.06-.02-.13-.02-.2,0-.12,0-.24-.01-.37,0-.1,0-.21,0-.31,0-.05.02-.11.02-.16,0-.04-.02-.08-.03-.12-.1-.29-.09-.6-.09-.91,0-.08-.07-.14-.15-.14-.21,0-.48.06-.69.01-.08-.01-.14-.08-.21-.09-.13-.01-.23.07-.35.08-.3.04-.63.01-.94,0-.12,0-.78.04-.78.03-.02-.37,0-.41,0-.78,0-.24-.11-.51-.08-.75.02-.13.11-.26.09-.4-.01-.1-.1-.19-.11-.29-.04-.25.05-.18.05-.45,0-.37,0-.57,0-.94h-.03Z"/>
  <path class="st0" d="M145.32.3l.03-.05-.03.05Z"/>
  <path class="st0" d="M164.33,4.07c0-.23-.01-.47-.01-.69,0-.07,0-.31,0-.38,0-.24-.02-.88-.03-1.09.02-.43,0-1.04-.01-1.35,0-.11-.09-.19-.21-.2h-.34c-.49,0-1-.06-1.48.05-.27.06-.55.01-.82,0-.33-.02-.66-.04-.99-.05-.17,0-.33,0-.49.03-.09.02-.18.06-.27.06-.12,0-.23-.03-.35-.06-.31-.08-.55-.05-.84.02-.29.07-.68.06-.98.04-.23-.01-.42-.08-.66-.03-.14.03-.28.07-.4.01-.04-.01-.07-.04-.11-.06-.12-.05-.25,0-.38.02-.29.03-.61-.14-.87,0-.2.11-.38-.03-.6-.02-.26,0-.51.01-.77.01-.11,0-.21.09-.21.21,0,.22,0,.47,0,.72v1.47c0,.43,0,1.03,0,1.46,0,.11.09.21.21.2.25,0,.5-.02.75,0,.26.02.43.12.69.02.05-.02.11-.03.15,0,.04.03.06.09.11.1.04,0,.07-.03.11-.05.05-.03.12-.04.18-.05.33-.04.65-.09.98-.1.22,0,.46,0,.68.02,0,.25,0,.34,0,.59s-.02.5,0,.76c0,.2,0,.25-.06.44-.05.17-.04.36.01.53.03.08.07.15.09.24.03.15-.01.31,0,.47,0,.12.05.23.07.35.03.2,0,.4,0,.6-.02.35.03.31-.04.65s.01.67-.02,1.02c-.02.19,0,.39.01.58.06.54-.04,1.08-.01,1.62.01.32,0,.62-.02.94-.01.33-.02.65-.03.98,0,.12,0,.25,0,.37v.19c0,.31,0,.61,0,.92.01.13.02.28-.05.4-.02.03-.04.06-.05.09-.02.05,0,.11.02.17.09.27.2.51.2.8,0,.31-.01.62-.01.94,0,.21,0,.42.01.62,0,.11.09.21.21.2.25,0,.5,0,.75,0h.59c.2,0,.4,0,.59,0,.24,0,.48,0,.72.01.11,0,.21-.09.21-.2,0-.29.04-.58.05-.87,0-.33,0-.65,0-.97,0-.55.03-1.1,0-1.65,0-.13-.05-.24-.07-.37-.01-.16.06-.31.05-.47,0-.13-.06-.26-.03-.4.02-.14.13-.25.12-.39,0-.09-.06-.16-.08-.25-.06-.2,0-.46,0-.66.01-.23.02-.46.01-.68,0-.55-.03-1.09-.03-1.64v-.74c0-.52,0-.62-.05-1.14-.02-.17-.04-.34-.02-.5.02-.15.08-.3.05-.44-.01-.08-.05-.15-.07-.23-.04-.19.04-.51.05-.72.03-.48.05-.95.07-1.42,0-.19,0-.22,0-.41,0-.09,0-.19,0-.29,0-.09,0-.11.1-.12.14-.01.29,0,.43,0,.24,0,.54.05.77-.02.2-.06.29-.11.51.02.06.04.12.08.18.09.06,0,.12-.03.19-.05.4-.18.92-.04,1.35-.05.08-.08.12-.13.21-.21h-.02Z"/>
  <path class="st0" d="M140.99,4.15c.03-.15-.07-.29-.15-.43-.11-.19-.05-.38-.05-.59,0-.27,0-.54,0-.81-.01-.53-.02-1.08-.02-1.6,0-.11-.1-.21-.21-.2-.16,0-.31,0-.46,0-.1,0-.2,0-.3,0h-1.18c-.11,0-.83-.02-1.09-.03-.07,0-.13.05-.13.12v.03s0,.12.01.28c-.02.21-.07.29-.07.65,0,.03.05.38.04.41-.04.13-.15.21-.08.36.02.04.05.08.06.12.02.06.02.13.02.19-.01.22-.06.44.01.64.02.06.06.13.07.2.01.09-.02.18-.05.27-.1.3-.04.57-.05.87-.01.34-.01.68,0,1.01,0,.44.02.67.04,1.12,0,.32,0,.66.03.97,0-.04-1.28.01-1.38.01-.74,0-1.09-.02-1.62-.03h-.82s-.16-1.56-.18-1.76c-.01-.25.03-.49.07-.74.07-.48.09-.97.02-1.45-.02-.14-.05-.29-.04-.43,0-.11.04-.23.06-.35.05-.36-.04-.74-.05-1.1,0-.47,0-.93,0-1.38,0-.11-.09-.2-.21-.2h-.17c-.45,0-1.02.04-1.47.04h-1.41c-.11,0-.2.09-.2.21.01.65.05,1.33,0,1.97,0,0-.01-.02-.01-.01,0,.34.06.68.06,1.01,0,.27-.17.49-.08.77.03.08.07.16.1.25.04.13.02.28.01.42-.02.22-.04.45-.11.67-.02.08-.05.16-.05.24,0,.09.06.18.08.27.04.18-.07.37-.06.56.01.11.06.21.09.31.07.27,0,.57.05.85.05.24.14.41.06.64-.04.12-.18.58-.09.68h-.01c.07.06.04.44.04.55,0,.19.01.37,0,.56,0,.35-.02.69-.03,1.04-.01.36-.03.71-.02,1.07,0,.52,0,1.05.01,1.58.01.43.03.86.04,1.29,0,.37.08.72.09,1.09l-.02-.2c0,.58,0,1.15,0,1.73,0,.18-.06.71.09.84.2.16.56.05.79.09.46.08.93-.05,1.4-.02h.94v-1.92c0-.08,0-.17-.02-.25-.02-.07-.08-.09-.07-.18,0-.06.04-.13.06-.19.07-.24-.05-.5-.08-.75-.02-.17,0-.34.01-.51.06-.58.08-1.17.06-1.75,0-.32-.05-.61-.04-.93,0-.1,0-.97-.01-.97.36,0,.71,0,1.06,0,.65,0,.64.06,1.28,0,.15-.01.89-.05,1.02.04.29-.03.57-.03.86-.05-.01.31-.03.61-.03.92,0,.34.01.47.03.8.02.67.04,1.35.03,2.1-.03.41-.04.91-.05,1.45v.85c0,.44,0,.89,0,1.34.34,0,.81,0,1.16,0,.19,0,.4,0,.59,0s.4,0,.6-.01c.25,0,.49,0,.73,0,.11,0,.21-.1.21-.21,0-.53-.03-1.06-.04-1.59-.02-.68-.16-1.35.02-2.03.03-.1.06-.21.04-.32-.01-.07-.06-.14-.08-.21-.1-.29.13-.6.07-.9-.01-.07-.05-.15-.06-.23-.01-.1,0-.2.02-.3.1-.54.11-1.09.03-1.63-.02-.13-.04-.27,0-.39.02-.06.07-.11.09-.17.07-.17-.03-.39-.03-.57,0-.26,0-.52,0-.79,0-.49-.01-.97-.04-1.46-.01-.27-.02-.53,0-.8.02-.48-.08-.96.04-1.43.05-.18.13-.36.12-.55-.02-.25-.21-.49-.13-.73.04-.11.13-.2.15-.32v.03Z"/>
  <path class="st0" d="M168.19,4.22h.16c.55,0,1.08,0,1.62-.06.13-.01.26,0,.4.03.32.04.64.07.97.06.04,0,.09,0,.13-.02.03-.02.06-.05.1-.06.03,0,.06.01.1.03.14.06.48-.03.64-.03.21,0,2.02,0,2.02,0,0,0,.04-.12,0-.4-.05-.28.03-1.12,0-1.6-.02-.33-.03-.47-.03-.63,0-.13.01-.35.01-.52,0-.16,0-.33,0-.48,0-.12-.1-.23-.22-.23-.36,0-.71,0-1.04-.01h-.64c-.36,0-.72.01-1.08.03-.16,0-.34-.01-.49.02-.1.02-.18.11-.28.12-.28.04-.64-.18-.93-.22-.36-.05-.73-.03-1.07.07-.1.03-.2.07-.3.08-.19.01-.36-.07-.55-.09-.28-.04-.55.07-.83.1-.28.03-.56-.03-.85-.04-.28,0-.55,0-.82-.01-.15,0-.26.11-.27.26-.01.5-.02,1.02-.03,1.6,0,.48,0,1.02,0,1.7,0,1.22.02,2.53.03,3.73.09.54.04,1.09.04,1.64,0,.52.02,1.05.04,1.57.01.47-.04.92-.03,1.38,0,.29.03.59-.05.87-.09.29-.29.59-.16.86.04.08.1.15.15.23.05.1.07.22.08.34.03.29.06.59.05.89-.02.35-.11.7-.07,1.05.04.35.11.66.1,1.02,0,.36-.02.71-.03,1.05,0,.17.13.31.29.32.1,0,.2,0,.3,0,.19,0,.47,0,.55,0,.53,0,1.07,0,1.6,0,.59.02,1.17.22,1.76.11.09-.01.18-.04.26,0,.04.02.07.05.1.06.1.04.21-.02.31-.05.1-.02.21-.01.31,0,.43.02.82-.12,1.24-.14.51-.02,1.03-.01,1.54,0h.62c.12,0,.22-.1.22-.22v-.79c0-.2,0-.4,0-.6,0-.42-.01-1.42-.02-1.84,0-.18-.15-.33-.33-.33-.27,0-.55,0-.82,0-.51,0-1.02,0-1.53.07-.04,0-.07,0-.11,0-.04,0-.07-.01-.11-.02-.15-.04-.3-.04-.45,0-.08.02-.16.05-.24.03-.06-.01-.11-.06-.17-.08-.06-.02-.13-.01-.2,0-.19.02-1.95.16-1.96.06-.04-.49.01-.43-.04-.92l.06-.33c.02-.53,0-1.03,0-1.53-.01-.35-.07-.46-.05-.81,0-.01,1.32-.03,1.47,0,.23.03.59-.13.77-.04.03.01.06.04.1.05.12.05.48-.05.62-.05.18,0,.32-.15.32-.33,0-.13-.03-.38,0-.5.03-.17.16-.29.12-.48-.01-.06-.04-.12-.06-.19-.01-.06-.02-.13-.02-.2,0-.12,0-.24-.01-.37,0-.1,0-.21.01-.31,0-.05.02-.11.02-.16,0-.04-.02-.08-.03-.12-.1-.29-.09-.6-.09-.91,0-.08-.07-.14-.15-.14-.21,0-.48.06-.69.01-.08-.01-.14-.08-.21-.09-.13-.01-.23.07-.35.08-.3.04-.63.01-.94,0-.12,0-.78.04-.78.03-.02-.37,0-.41-.01-.78,0-.24-.11-.51-.08-.75.02-.13.11-.26.09-.4-.01-.1-.1-.19-.11-.29-.04-.25.05-.18.05-.45,0-.37-.01-.57,0-.94h-.03Z"/>
  <path class="st0" d="M179.56,18.71l-.13-.02s.03.02.13.02Z"/>
  <path class="st0" d="M180.86,13.67s0,.02,0,.03c0-.02,0-.03,0-.03Z"/>
  <path class="st0" d="M185,16.61c.03-.09-.1-.16-.08-.26.05-.17-.04-.75-.01-.92.02-.16.06-.32.04-.49-.25-.04-.53-.02-.79-.02h-.5c-.27,0-.53.03-.79.08-.09-.13-.69-.01-.89-.05h.02c-.52.09-.6-.11-1.09-.02.02,0,.03-.04.15-.04-.36.01-.85.04-.88-.03-.19,0-.4,0-.62,0,0-.16.03.08.02-.06-.01-.28-.03-.1-.07-.28l.02.04c-.08-.32-.01-.42-.05-.77,0-.02.01-.04.02-.04-.08-.08-.05-.46-.04-.56.01-.17-.01-.35,0-.52.01-.09.04-.18.04-.27,0-.09-.02-.18-.03-.27-.03-.28.05-.56.05-.85,0-.12-.01-.25-.03-.38-.1-1.02,0-2.07,0-3.1,0-.8-.05-1.63.04-2.41.04.01.04-.36.08-.19-.04-.17-.04-.41-.04-.58,0-.27.04-.55.06-.82.04-.55.08-1.11.06-1.66,0-.12,0-1.23.01-1.55,0-.05-.04-.09-.09-.09h-.21c.09,0-.94-.02-1.27.02-.12.01-.23.04-.35.04-.1,0-.21-.01-.3-.02-.16-.01-.31,0-.47,0-.28,0-.56,0-.83,0-.14,0-.27.1-.27.25-.03.45-.07.91-.04,1.34.02.38.02.75,0,1.12,0,.12-.01.25.04.36.02.04.05.08.05.13,0,.05-.05.08-.07.12-.02.05,0,.12,0,.18.08.32.05.67.04.99,0,.22.07.57-.04.77,0,0-.03.72.04.88-.05-.14-.07.25-.13.14.06.18.1.73.04.96v-.04c-.07.81.08,1.39,0,2.11.04-.02.03.28.11.26.02.14-.04.32-.04.47,0,.23,0,.46.01.69.01.19.03.39.01.58-.01.1-.03.19-.04.29-.01.14,0,.29,0,.43.03.4.06.8.1,1.2.01.17.03.35.01.52-.01.18-.05.36-.01.53.03.15.09.25.07.4,0,.06-.07.22-.06.33-.02.16.03.32.03.48,0,.2-.08.39-.09.59-.01.24.08.48.07.72-.01.25-.15.52-.09.77.01.04.06.25.09.43.02.15.16.25.3.24.11,0,.22-.01.32,0,.21.03.4-.05.6,0,.14.03.55,0,.71.01.15.01.3,0,.45,0,.79-.09,1.29.17,2.04.02.23-.04.46-.06.69-.03.26.02.51-.05.76-.06.26-.01.53.17.79.13.26-.03.52-.08.79-.12h.95s.04.02.06,0h.23c.13,0,.23-.11.23-.24-.01-.24-.01-.74,0-.96.02-.17-.05-.74,0-.91h.02Z"/>
  <path class="st0" d="M142.25,14.86v-.13s0,.04,0,.13Z"/>
  <path class="st0" d="M153.04,11.68s0,.02,0,.03c0-.02,0-.03,0-.03Z"/>
  <path class="st0" d="M150.07,8.21s0-.01,0-.02c0,.01,0,.02,0,.02Z"/>
  <path class="st0" d="M142.91,16.57h.01s-.01-.01-.01,0Z"/>
  <path class="st0" d="M153.07,13.53c-.03-.4-.13-.79-.12-1.2,0-.31.05-.61.04-.91,0-.2-.04-.41-.06-.61-.04-.31-.05-.62-.05-.93,0-.26.06-.49.01-.75-.04-.22.02-.45.03-.66,0-.1.01-.2.02-.3,0-.18,0-.37,0-.54,0-.22.1-.43.09-.66,0-.18-.06-.36-.04-.53,0-.09.04-.19.05-.28.01-.1,0-.21,0-.31-.01-.2-.03-.39-.05-.59-.02-.23-.08-.46-.1-.68-.01-.1-.01-.2-.03-.3-.02-.12-.04-.24-.07-.36-.06-.27-.08-.53-.2-.77-.08-.15-.16-.3-.26-.44-.1-.14-.2-.3-.31-.45-.26-.36-.56-.67-.83-1.02-.04-.05-.08-.1-.14-.15-.04-.03-.1-.06-.15-.08-.14-.06-.29-.12-.43-.2-.16-.09-.31-.21-.47-.28-.38-.17-.84-.12-1.22-.3-.08-.04-.16-.08-.24-.11-.12-.03-.24-.02-.36-.02-.4,0-.76-.12-1.17-.09-.11,0-.31,0-.4.07-.02.01-.04.03-.06.05-.11.07-.28.02-.38.11-.05-.04-.13-.05-.19-.03-.02,0-.04.02-.07.03-.03.01-.07.02-.1.03-.12.04-.22.12-.29.23-.08,0-.16.03-.24.07-.17.09-.33.19-.5.28-.07.04-.14.08-.19.13-.04.04-.08.09-.12.13-.1.08-.19.11-.27.22-.07.09-.18.16-.27.25-.15.14-.29.39-.47.48-.08.04-.16.22-.22.29-.04.05-.09.09-.13.14-.04.06-.06.14-.11.2-.02.02-.05.05-.07.07-.03.03-.04.07-.06.11-.11.25-.21.49-.32.75-.03.07-.06.14-.08.22-.02.07-.03.14-.05.21-.03.15-.05.3-.08.45-.05.3-.07.58-.08.88,0,.35.08.67.11,1.02.02.24,0,.48-.02.71-.02.22-.05.44-.06.66-.02.31.09.61.07.91-.01.14-.02.29-.04.44-.01.15-.03.31,0,.47h0c-.01.06-.01.12,0,.18.02.25.04.5.08.75.02.14.06.28.05.42,0,.06-.02.12-.03.19-.02.12-.01.24,0,.36,0,.17.02.35,0,.52,0,.06-.03.13-.02.19,0,.08.09.14.06.23,0,.03-.03.05-.04.08-.02.05-.02.12-.01.18.05.47.03.93.07,1.4.03.32.02.65.1.95.09.34.18.68.33.99.11.24.24.47.31.72,0,.04.02.1.06.13.04.03.1.02.16.04.13.04.14.21.21.33.05.09.14.15.23.21.41.27.83.54,1.24.81.06.04.13.08.2.1.09.02.17.08.26.11.09.02.17.12.25.14.12.03.24.18.36.21.11.02.22.03.32.04.07,0,.13.01.19.02.34.07.69.11,1.04.11.09,0,.17,0,.26,0,.07.02.16.03.27.05.32.02.63-.03,1.32-.22l.64-.25c.79-.29.77-.48,1.11-.95.04,0,.09-.01.15-.06.05-.05.11-.12.18-.19.06-.07.12-.15.17-.22.05-.07.09-.13.13-.16v.02c.1-.2.21-.31.36-.45.15-.14.17-.3.22-.49.03-.12.07-.23.11-.34.05-.15.11-.3.17-.45.04-.09.06-.17.1-.26.07-.16.09-.26.12-.44.01-.12.04-.24.04-.37,0-.12.01-.25.01-.38,0-.12,0-.23,0-.35h0ZM150.12,11.01c-.03.2-.08.41-.05.6,0,0-.05.01-.05.01.11.32.01.44-.04.77-.02.11-.04.22-.05.33-.02.24-.03.48-.06.72,0,.04,0,.08,0,.13,0,.08,0,.18-.01.27-.03.22-.14.39-.21.59-.06.19-.1.32-.26.47-.13.13-.28.24-.41.37-.08.09-.17.2-.29.21-.08,0-.16-.04-.24-.03-.2,0-.31.17-.53.16-.23-.01-.46-.06-.68-.14.01.07-.06.04-.14.04v-.05c0,.09-.19-.12-.18-.12-.11-.08-.2-.08-.33-.11-.3-.08-.54-.41-.7-.67-.06-.09-.11-.18-.17-.27-.09-.16-.16-.34-.14-.51,0-.07.03-.14.04-.21.01-.14-.08-.24-.01-.4v.02c.07-.52-.08-.48,0-.95-.06.02-.03-.23-.11-.16-.08-.48.16-.89-.08-1.06,0-.13.05-.22.06-.34.01-.12-.03-.19-.05-.3-.06-.35,0-.75-.03-1.1-.03-.34.02-.67,0-1-.02-.37-.05-.75-.06-1.12,0-.34.09-.22.03-.56,0-.02,0-.05,0-.07-.01-.03-.03-.06-.02-.09,0-.01,0-.03.02-.04,0-.12,0-.24,0-.37,0,0,0-.02,0-.03-.03-.18,0-.38.04-.57v-.04s0,0,0,.01c.04-.16.09-.32.15-.46.1-.27.19-.6.42-.79h-.09c.21-.28.41-.41.64-.48.18-.15.35-.25.5-.34.68-.19,1.66-.14,2.1.5.07.1.13.21.21.31.08.09.17.16.24.25.06.07.1.16.14.25.24.58.26,1.25.21,1.84-.03.3,0,.21.01.5,0,.17-.03.58.09.73l-.02-.02c.08.21,0,.27.05.5,0,.01-.01.03-.02.02.13.09.05.93.06,1.08,0,.46.09.92.09,1.38,0,.11-.02.23-.04.34h0Z"/>
  <path class="st0" d="M97.71,3.77h0s-.02,0-.03,0h.04Z"/>
  <path class="st0" d="M126.7,5.2s0,0-.01,0h.01s0,0,0,0Z"/>
  <path class="st0" d="M68.49.43h0s.03,0,.04,0h-.05Z"/>
  <path class="st0" d="M93.39,4.07c0-.23,0-.47-.01-.69,0-.07,0-.31,0-.38,0-.24-.02-.88-.03-1.09.02-.43,0-1.04-.01-1.35,0-.11-.09-.19-.2-.2h-.34c-.49,0-1-.06-1.48.05-.27.06-.55.01-.82,0-.33-.02-.66-.04-.99-.05-.17,0-.33,0-.49.03-.09.02-.18.06-.27.06-.12,0-.23-.03-.35-.06-.31-.08-.55-.05-.84.02-.29.07-.68.06-.98.04-.23-.01-.42-.08-.66-.03-.14.03-.28.07-.41.01-.04-.01-.07-.04-.11-.06-.12-.05-.25,0-.38.02-.29.03-.61-.14-.87,0-.2.11-.38-.03-.6-.02-.26,0-.51.01-.77.01-.11,0-.2.09-.2.21,0,.22,0,.47,0,.72v1.47c0,.43,0,1.03,0,1.46,0,.11.09.21.21.2.25,0,.5-.02.75,0,.26.02.43.12.69.02.05-.02.11-.03.15,0,.04.03.06.09.11.1.04,0,.07-.03.11-.05.05-.03.12-.04.18-.05.33-.04.65-.09.98-.1.22,0,.46,0,.68.02,0,.25,0,.34,0,.59s-.02.5,0,.76c0,.2,0,.25-.06.44-.05.17-.04.36.01.53.03.08.07.15.09.24.03.15-.01.31,0,.47,0,.12.05.23.07.35.03.2,0,.4,0,.6-.02.35.03.31-.04.65-.07.35.01.67-.02,1.02-.02.19,0,.39,0,.58.06.54-.04,1.08-.01,1.62.01.32,0,.62-.02.94-.01.33-.02.65-.03.98,0,.12,0,.25,0,.37v.19c0,.31,0,.61,0,.92,0,.13.02.28-.05.4-.02.03-.04.06-.05.09-.02.05,0,.11.02.17.09.27.2.51.2.8,0,.31-.01.62,0,.94,0,.21,0,.42,0,.62,0,.11.09.21.21.2.25,0,.5,0,.75,0h.59c.2,0,.4,0,.59,0,.24,0,.48,0,.72.01.11,0,.2-.09.21-.2,0-.29.04-.58.05-.87,0-.33,0-.65,0-.97,0-.55.03-1.1,0-1.65,0-.13-.05-.24-.07-.37-.01-.16.06-.31.05-.47,0-.13-.06-.26-.03-.4.02-.14.13-.25.12-.39,0-.09-.06-.16-.08-.25-.06-.2,0-.46,0-.66.01-.23.02-.46.01-.68,0-.55-.03-1.09-.03-1.64v-.74c0-.52,0-.62-.05-1.14-.02-.17-.04-.34-.02-.5.02-.15.08-.3.05-.44-.01-.08-.05-.15-.07-.23-.04-.19.04-.51.05-.72.03-.48.05-.95.07-1.42,0-.19,0-.22,0-.41,0-.09,0-.19,0-.29,0-.09,0-.11.1-.12.14-.01.29,0,.43,0,.24,0,.54.05.77-.02.2-.06.29-.11.51.02.06.04.12.08.19.09.06,0,.12-.03.19-.05.4-.18.92-.04,1.35-.05.08-.08.12-.13.2-.21h-.02Z"/>
  <path class="st0" d="M119.14,4.22h.16c.55,0,1.08,0,1.62-.06.13-.01.26,0,.4.03.32.04.64.07.97.06.04,0,.09,0,.13-.02.03-.02.06-.05.1-.06.03,0,.06.01.1.03.14.06.48-.03.64-.03.2,0,2.02,0,2.02,0,0,0,.04-.12,0-.4-.05-.28.03-1.12,0-1.6-.03-.33-.03-.47-.03-.63,0-.13,0-.35.01-.52,0-.16,0-.33,0-.48,0-.12-.1-.23-.22-.23-.36,0-.71,0-1.04-.01h-.64c-.36,0-.72.01-1.08.03-.16,0-.34-.01-.49.02-.1.02-.18.11-.28.12-.28.04-.64-.18-.93-.22-.36-.05-.73-.03-1.07.07-.1.03-.2.07-.3.08-.18.01-.36-.07-.55-.09-.28-.04-.55.07-.83.1-.28.03-.56-.03-.85-.04-.28,0-.55,0-.82-.01-.15,0-.26.11-.27.26-.01.5-.02,1.02-.03,1.6,0,.48,0,1.02,0,1.7,0,1.22.02,2.53.04,3.73.09.54.04,1.09.04,1.64,0,.52.02,1.05.04,1.57.01.47-.04.92-.04,1.38,0,.29.04.59-.05.87-.09.29-.29.59-.17.86.04.08.1.15.15.23.05.1.07.22.08.34.03.29.06.59.05.89-.02.35-.11.7-.07,1.05.03.36.11.66.1,1.02-.01.36-.02.71-.03,1.05,0,.17.13.31.29.32.1,0,.2,0,.3,0,.19,0,.47,0,.55,0,.53,0,1.07,0,1.6,0,.58.02,1.17.22,1.76.11.09-.01.18-.04.26,0,.04.02.07.05.1.06.1.04.21-.02.31-.05.1-.02.21-.01.31,0,.43.02.82-.12,1.24-.14.51-.02,1.03-.01,1.54,0h.62c.12,0,.22-.1.22-.22v-.79c0-.2,0-.4-.01-.6,0-.42,0-1.42-.02-1.84,0-.18-.15-.33-.33-.33-.27,0-.55,0-.82,0-.51,0-1.02,0-1.53.07-.04,0-.07,0-.11,0-.04,0-.07-.01-.11-.02-.15-.04-.3-.04-.45,0-.08.02-.16.05-.24.03-.06-.01-.11-.06-.17-.08-.06-.02-.13-.01-.19,0-.19.02-1.95.16-1.96.06-.04-.49.01-.43-.04-.92l.06-.33c.02-.53.01-1.03,0-1.53-.01-.35-.07-.46-.05-.81,0-.01,1.32-.03,1.47,0,.23.03.58-.13.77-.04.03.01.06.04.1.05.12.05.48-.05.62-.05.18,0,.32-.15.32-.33,0-.13-.03-.38,0-.5.03-.17.16-.29.12-.48-.01-.06-.04-.12-.06-.19-.01-.06-.02-.13-.02-.2,0-.12-.01-.24-.01-.37,0-.1,0-.21,0-.31.01-.05.03-.11.02-.16,0-.04-.02-.08-.03-.12-.1-.29-.09-.6-.09-.91,0-.08-.07-.14-.15-.14-.21,0-.48.06-.69.01-.08-.01-.14-.08-.21-.09-.13-.01-.23.07-.35.08-.3.04-.63.01-.94,0-.12,0-.78.04-.78.03-.02-.37,0-.41-.01-.78,0-.24-.11-.51-.08-.75.02-.13.11-.26.09-.4-.01-.1-.1-.19-.11-.29-.04-.25.05-.18.05-.45,0-.37,0-.57,0-.94h-.03Z"/>
  <path class="st0" d="M77.54,12.51h0s.01.05.02.06l-.02-.06h0Z"/>
  <path class="st0" d="M81.4,15.07l.02-.1s-.02.03-.02.1Z"/>
  <path class="st0" d="M80.89,9.11v-.05c-.01.18-.04.35-.05.53.02-.16.04-.32.05-.48Z"/>
  <path class="st0" d="M81.01,15.24c.14-.08,0-.61.04-.78h0c-.12-.44.06-.9-.05-1.33,0,.01.05.02.05.12-.03-.31-.07-.73,0-.75.09-.02-.17-.99-.18-1.1-.07-.48.13-.97.08-1.45-.01-.12-.04-.25-.03-.37,0-.1.05-.21.05-.32,0-.19-.14-.35-.15-.53,0-.13.04-.22.06-.35.06-.37,0-.82-.04-1.19,0-.07-.02-.15,0-.23.01-.13.09-.26.08-.39-.02-.16-.17-.29-.17-.45,0-.22.09-.45.1-.68,0-.24.02-.49.04-.74,0-.16.02-.31.03-.47.04-.53.02-1.08,0-1.61,0-.33.05-.65.07-.98.01-.28.02-.47-.08-.71.01-.12.02-.24.02-.35,0-.12-.1-.22-.21-.22-.2,0-.42,0-.57,0-.23.01-.46.02-.7.04-.4.03-.81-.07-1.18.05-.1.03-.34-.01-.45-.02-.09,0-.39-.01-.47-.01-.11,0-.2.08-.21.19,0,.12-.01.25-.02.38-.02.54.06,1.04.04,1.57-.04,1.02.15,2.05.05,3.11,0,.1-.02.21,0,.31.03.13.16,1.14.03,1.19.07-.02.03.27.12.2.08.58-.3,1.05-.03,1.27.01.27-.06.32-.07.46v-.06c0,.5,0,.65,0,1.03,0,.17.12.37.12.56.01.3.03.59,0,.89,0,.14-.02.28-.03.43-.02.58.04,1.17.11,1.77.02.16.02.33,0,.49-.04.37-.06.74-.12,1.12-.02.13-.02.27,0,.41.06.33,0,.65,0,.97-.01.48.07.79.1,1.35,0,.22,0,.39,0,.62,0,.11.29.19.4.2.31.02.77.05.85.06.07,0,.14.02.2.04.32-.04.6-.08.83-.12l.81.02s.04.02.07,0l.42.02c0-.35-.05-.66,0-.99.06-.32,0-.34.03-.67v-.26c.05-.76.05-1.23-.08-1.75h.02Z"/>
  <path class="st0" d="M98.26,9.11v-.05c-.01.18-.04.35-.05.53.02-.16.04-.32.05-.48Z"/>
  <path class="st0" d="M98.39,15.24c.14-.08,0-.61.04-.78h0c-.12-.44.06-.9-.05-1.33,0,.01.05.02.05.12-.03-.31-.07-.73,0-.75.09-.02-.17-.99-.18-1.1-.07-.48.13-.97.08-1.45-.01-.12-.04-.25-.03-.37,0-.1.05-.21.05-.32,0-.19-.14-.35-.15-.53,0-.13.04-.22.06-.35.06-.37,0-.82-.04-1.19,0-.07-.02-.15,0-.23.01-.13.09-.26.08-.39-.02-.16-.17-.29-.17-.45,0-.22.09-.45.1-.68,0-.24.02-.49.04-.74,0-.16.02-.31.03-.47.04-.53.02-1.08,0-1.61,0-.33.05-.65.07-.98.01-.28.02-.47-.08-.71.01-.12.02-.24.02-.35,0-.12-.1-.22-.21-.22-.2,0-.5,0-.65,0-.23.01-.46.02-.7.04-.4.03-.81-.07-1.18.05-.1.03-.34-.01-.45-.02-.09,0-.18-.01-.27-.01-.11,0-.2.08-.21.19,0,.12-.01.25-.02.38-.02.54.06,1.04.04,1.57-.04,1.02.15,2.05.05,3.11,0,.1-.02.21,0,.31.03.13.16,1.14.03,1.19.07-.02.03.27.12.2.08.58-.3,1.05-.03,1.27.01.27-.06.32-.07.46v-.06c0,.5,0,.65,0,1.03,0,.17.12.37.12.56.01.3.03.59,0,.89,0,.14-.02.28-.03.43-.02.58.04,1.17.11,1.77.02.16.02.33,0,.49-.04.37-.06.74-.12,1.12-.02.13-.02.27,0,.41.06.33,0,.65,0,.97-.01.48.07.79.1,1.35,0,.22,0,.39,0,.62,0,.11.09.19.19.2.31.02.77.05.85.06.07,0,.14.02.21.04.32-.04.6-.08.83-.12l.89.02s.04.02.07,0l.42.02c0-.35-.05-.66,0-.99.06-.32,0-.34.03-.67v-.26c.05-.76.05-1.23-.08-1.75h.02Z"/>
  <path class="st0" d="M114.14,3.05c0-.36,0-.71,0-1.07,0-.13.07-1.39.04-1.39-.31,0-.61,0-.9.01-.47.01-.97-.06-1.43.01-.09.01-.18.04-.28.04-.2,0-.41-.02-.61-.02h-.08c-.13,0-.26,0-.39.02-.02,0-.04,0-.06.02,0,0-.01.02-.02.04-.09.25-.19.49-.28.75-.02.03-.03.06-.05.1-.22.42-.32.87-.4,1.34-.11.35-.18.6-.18.6-.22.83-.54,1.66-.78,2.5-.12.44-.23.88-.32,1.33-.04.2-.04.44-.11.63-.06.17-.14.33-.18.51-.08.34-.14.68-.22,1.02-.09.36-.11.72-.19,1.07-.04.19-.15.36-.19.54-.04.16-.05.33-.1.48-.16-.04-.11-.33-.14-.46-.09-.43-.21-.87-.32-1.3-.19-.75-.35-1.42-.51-2.08-.14-.55-.29-1.09-.4-1.64-.05-.22-.05-.45-.14-.66-.05-.11-.12-.22-.19-.33-.18-.33-.22-.71-.27-1.08-.04-.38-.17-.74-.27-1.1-.1-.36-.19-.7-.33-1.05-.16-.42-.19-.88-.32-1.31-.04-.14-.03-.16-.16-.19-.1-.02-.24,0-.34,0-.24,0-.47.01-.71.04-.07,0-.15.02-.22.01-.05,0-.11-.02-.16-.03-.34-.07-.7-.07-1.04.02-.1.02-.24-.02-.34-.03-.13-.02-.28,0-.41,0h-.78c0,.35-.08.67-.04,1.03.07.67.09,1.33.01,1.99-.02.23-.01.44.04.66.03.16.01.32.02.48.01.44.11.94.06,1.37l-.05.45c.02.4.04.87.01,1.27v-.02c.03.6,0,1.27.02,1.57v-.02c.03.07-.01.32-.01.42,0,.16,0,.32,0,.48,0,.29-.09.57-.06.86.03.33.03.65.02.98,0,.17,0,.34-.01.51,0,.13-.09.23-.08.36.03.26.09.51.13.77.03.23,0,.44,0,.67,0,.1.03.22,0,.32-.02.06-.06.11-.09.17-.08.18-.01.38.02.57.08.39.08.81.07,1.2,0,.46-.12.91-.08,1.37,0,.06.01.13.04.18.08.15.06.17.04.32,0,.04.01.52.01.52h1.09c.19,0,.47,0,.66,0,.19,0,.39,0,.58.01.33,0,.66,0,.99.02.02,0-.01-.85,0-.93.01-.14.02-.28,0-.43,0-.14-.04-.27-.05-.41,0-.21.04-.43.04-.64,0-.18-.02-.37-.03-.55.02.19.03-.17.04-.15-.02-1.1-.03-2.27-.15-2.29,0-.8.04-.65.09-.76-.05,0-.08-.69-.08-1.31l.02.29c0-.42-.02-.84-.05-1.26-.01-.14-.04-.29-.07-.43-.02-.09-.03-.68.09-.71.1-.02.25.86.27.95.12.42.3.81.34,1.23.03.33.16.66.24.98.08.3.15.6.23.9.06.24.16.47.21.7.03.16,0,.32.04.48.04.17.17.32.2.5.02.11,0,.22,0,.33,0,.13.04.26.08.39.08.25.16.49.23.74.05.18.06.39.13.56.06.15.11.29.15.45.03.11.26,1.27.31,1.27.22,0,.45,0,.67,0,.23,0,.43.1.67.1.25,0,.5-.06.75-.08.23,0,.46,0,.69.01.07-.27.14-.54.21-.81.05-.17.09-.35.14-.51l.11-.19c.09-.05.09-.33.11-.42.03-.24.06-.48.1-.71.1-.58.2-1.14.42-1.7.06-.15.13-.3.18-.46.05-.17.08-.34.1-.51.07-.48.22-.91.33-1.38.09-.38.2-.76.22-1.15,0-.18.11-.39.15-.57.03-.17.08-.36.12-.5.03-.02.05-.07.08-.14,0,.25,0,.42,0,.58.01.67.16,1.35.11,2.01-.03.4-.12.82-.06,1.22.07.48.16.95.14,1.44-.03.61-.06,1.22-.11,1.84-.02.36-.1.75-.04,1.11.01.09.04.86.01.86.19.03.38.05.58.06.19,0,.39-.03.58-.03.28,0,.57-.11.84-.08.12.01.24.05.37.06.04,0,.74.01.74.01v-.71s.02-.54.02-.54c0-.66.16-1.35.03-1.99-.13-.66-.06-1.43-.04-2.09.01-.33.05-.65.06-.97,0-.32-.06-.61-.04-.93.01-.14,0-.28-.02-.42.05-.08.05-.2-.01-.28-.07-.09,0-.64,0-.77,0-.22-.05-.42-.08-.63-.1-.59-.09-1.34.06-1.91.03-.1.05-.21.06-.31,0-.13-.03-.25-.06-.38-.09-.4-.13-.81-.11-1.22.02-.44.12-.87.12-1.31,0-.17-.01-.34-.03-.51-.02-.28-.03-.55-.04-.83l.03-.03Z"/>
  <path class="st0" d="M52.57,3.05c0-.36,0-.71,0-1.07,0-.13.07-1.39.03-1.39-.31,0-.6,0-.9.01-.47.01-.97-.06-1.43.01-.09.01-.19.04-.28.04-.2,0-.4-.02-.61-.02h-.08c-.13,0-.26,0-.39.02-.02,0-.04,0-.06.02,0,0-.01.02-.02.04-.09.25-.2.49-.28.75-.02.03-.03.06-.05.1-.22.42-.32.87-.4,1.34-.11.35-.18.6-.18.6-.22.83-.54,1.66-.78,2.5-.12.44-.23.88-.32,1.33-.04.2-.04.44-.11.63-.06.17-.14.33-.18.51-.08.34-.14.68-.22,1.02-.09.36-.11.72-.2,1.07-.04.19-.15.36-.19.54-.04.16-.05.33-.1.48-.16-.04-.11-.33-.14-.46-.09-.43-.21-.87-.32-1.3-.19-.75-.35-1.42-.51-2.08-.14-.55-.29-1.09-.4-1.64-.05-.22-.05-.45-.14-.66-.05-.11-.12-.22-.19-.33-.18-.33-.22-.71-.27-1.08-.04-.38-.17-.74-.27-1.1-.1-.36-.2-.7-.33-1.05-.16-.42-.19-.88-.32-1.31-.04-.14-.03-.16-.16-.19-.1-.02-.24,0-.34,0-.24,0-.47.01-.71.04-.07,0-.15.02-.22.01-.05,0-.11-.02-.16-.03-.34-.07-.7-.07-1.04.02-.1.02-.24-.02-.34-.03-.13-.02-.28,0-.41,0h-.78c0,.35-.08.67-.04,1.03.07.67.09,1.33,0,1.99-.02.23,0,.44.04.66.03.16.01.32.02.48,0,.44.11.94.06,1.37l-.05.45c.02.4.04.87.01,1.27v-.02c.02.6,0,1.27.02,1.57v-.02c.03.07-.01.32-.01.42,0,.16,0,.32,0,.48,0,.29-.09.57-.06.86.03.33.03.65.02.98,0,.17,0,.34-.01.51,0,.13-.09.23-.08.36.03.26.09.51.13.77.03.23,0,.44,0,.67,0,.1.02.22,0,.32-.02.06-.06.11-.09.17-.08.18-.01.38.02.57.08.39.08.81.07,1.2,0,.46-.12.91-.08,1.37,0,.06.01.13.04.18.08.15.06.17.04.32,0,.04.01.52,0,.52h1.09c.2,0,.47,0,.66,0,.2,0,.39,0,.59.01.33,0,.66,0,.99.02.02,0,0-.85,0-.93.01-.14.02-.28,0-.43,0-.14-.04-.27-.05-.41,0-.21.04-.43.04-.64,0-.18-.02-.37-.03-.55.02.19.03-.17.04-.15-.02-1.1-.03-2.27-.15-2.29,0-.8.04-.65.09-.76-.05,0-.08-.69-.08-1.31l.02.29c0-.42-.02-.84-.05-1.26,0-.14-.03-.29-.07-.43-.02-.09-.03-.68.09-.71.1-.02.25.86.27.95.12.42.3.81.34,1.23.03.33.16.66.24.98.08.3.15.6.23.9.06.24.16.47.21.7.03.16,0,.32.04.48.04.17.17.32.2.5.02.11,0,.22,0,.33,0,.13.04.26.08.39.08.25.16.49.23.74.05.18.06.39.13.56.06.15.11.29.15.45.03.11.26,1.27.31,1.27.22,0,.45,0,.67,0s.43.1.67.1c.25,0,.5-.06.75-.08.23,0,.46,0,.69.01.07-.27.14-.54.21-.81.05-.17.09-.35.14-.51l.11-.19c.09-.05.09-.33.11-.42.03-.24.06-.48.1-.71.1-.58.2-1.14.42-1.7.06-.15.13-.3.18-.46.05-.17.08-.34.1-.51.07-.48.22-.91.33-1.38.09-.38.2-.76.22-1.15,0-.18.11-.39.15-.57.03-.17.08-.36.12-.5.03-.02.05-.07.08-.14,0,.25,0,.42,0,.58.01.67.16,1.35.11,2.01-.03.4-.12.82-.06,1.22.07.48.16.95.14,1.44-.03.61-.06,1.22-.11,1.84-.02.36-.1.75-.04,1.11.01.09.04.86,0,.86.19.03.38.05.58.06.19,0,.39-.03.58-.03.28,0,.57-.11.84-.08.12.01.24.05.37.06.04,0,.74.01.74.01v-.71s.02-.54.02-.54c0-.66.16-1.35.03-1.99-.13-.64-.06-1.43-.04-2.09,0-.33.05-.65.06-.97,0-.32-.06-.61-.03-.93.01-.14,0-.28-.02-.42.05-.08.05-.2-.01-.28-.07-.09,0-.64,0-.77,0-.22-.05-.42-.08-.63-.1-.59-.09-1.34.06-1.91.03-.1.05-.21.06-.31,0-.13-.03-.25-.06-.38-.09-.4-.13-.81-.11-1.22.02-.44.12-.87.12-1.31,0-.17-.01-.34-.03-.51-.02-.28-.03-.55-.04-.83l.03-.03Z"/>
  <path class="st0" d="M73.83,10.48c.09-.05.18-.11.27-.18.31-.24.56-.55.74-.9.17-.33.37-.64.51-.97.38-.9.56-1.97.46-2.94-.02-.2-.04-.41-.12-.6-.15-.39-.33-.78-.49-1.17-.05-.12-.09-.23-.14-.35-.18-.45-.41-.87-.68-1.26-.14-.2-.14-.4-.3-.59-.13-.15-.39-.3-.48-.46-.04-.06-.04-.14-.1-.18-.03-.03-.08-.04-.12-.05-.26-.09-.41-.4-.68-.44-.1-.01-.37.01-.46.04-.3.06-.55,0-.84-.03-.28-.03-.59,0-.87,0-.34,0-.68-.02-1.02-.02-.16,0-.35-.02-.51.01-.14.03-.21.09-.37.04-.1-.03-.2-.07-.3-.06-.08,0-.15.04-.22.07-.23.07-.48.01-.72,0-.36-.02-.78.03-1.14.09-.01,0-.03,0-.04.02,0,.01,0,.03,0,.04.02.77.03,1.54.05,2.31,0,.27,0,.53.01.8.02.91.11,1.84.02,2.74h-.01c.12.09.06.77.05.92,0,.29-.03.58-.05.87-.03.66,0,1.33,0,2v1.35c0,.47,0,.93.03,1.39.05.55.06,1.03-.02,1.58-.08.57,0,1.2,0,1.78,0,.34.01.88.02,1.22v.57c.01.27.02.54.02.82.46,0,.92,0,1.39,0,.17,0,.35,0,.52,0,.09,0,.18-.03.27-.02.17,0,.63.13.76.03.11-.08.09-.5.11-.64.02-.25.04-.5.05-.75.01-.45-.04-1.11,0-1.55.05-.86.06-1.74.03-2.6,0,.02.77-.44.84-.44.02,0,.05,0,.07.02.02.02.03.05.05.08.18.54.25,1.1.46,1.63.09.22.17.45.24.67.07.22.23.44.27.67.01.09.01.19.06.27.04.07.12.12.17.2.19.32.39.89.51,1.25.05.14.1.28.15.42.07.21.15.55.22.77,0,0,.47.04.54.06.23.04.48-.08.72-.06.34.04.69.09,1.03.07.34-.02.64-.09,1-.08-.22-.65-.47-1.43-.71-2.08-.09-.23-.18-.45-.27-.67-.11-.27-.22-.55-.34-.82-.02-.06-.05-.13-.08-.19-.09-.22-.18-.44-.24-.66-.04-.15-.07-.31-.09-.47,0-.08-.01-.16-.04-.24-.02-.08-.07-.15-.12-.22-.33-.5-.46-1.02-.67-1.58-.13-.32-.31-.59-.4-.93.29-.13.58-.29.85-.46.06-.04.13-.08.2-.12h0ZM72.37,5.83c.01.05.02.11.03.17.01.15-.01.31-.04.46-.04.24-.02.48-.14.7-.12.22-.35.34-.47.55-.06.12-.08.25-.14.38-.07.17-.21.3-.34.43-.09.08-.18.17-.29.21-.3.12-.5.14-.73.37-.22.21-.52.35-.79.49-.01-.4.08-.82,0-1.21-.06-.35-.02-.68,0-1.03,0-.24,0-.48,0-.71,0-.11.02-.96-.04-.96v-.56s.02-.48-.03-.88c.28.05.59,0,.87-.02.36,0,.72-.01,1.08,0,.1,0,.21.26.27.33.12.13.23-.02.32.14.08.15.14.31.2.47.05.13.1.26.15.4.03.09.07.19.09.29h0Z"/>
  <path class="st0" d="M65.37,18.11c-.04-.14-.08-.28-.12-.42-.02-.08-.05-.17-.08-.26-.1-.32-.19-.65-.27-1.02-.08-.35-.13-.7-.21-1.04-.08-.34-.19-.65-.29-.98-.06-.19-.06-.39-.09-.58-.03-.21-.11-.41-.18-.6-.07-.21-.15-.41-.22-.62-.1-.27-.19-.54-.26-.82-.06-.24-.09-.48-.17-.72-.06-.19-.14-.38-.18-.58-.09-.51-.2-1.01-.25-1.53-.01-.11-.02-.22-.07-.33-.03-.06-.07-.12-.09-.19-.02-.08,0-.17-.01-.26,0-.14-.07-.24-.11-.37-.03-.09-.03-.2-.06-.3-.04-.14-.08-.29-.12-.43-.03-.11-.13-.28-.13-.4,0-.06-.07-.2-.08-.19l-.39-1.58c-.02-.1-.05-.21-.08-.32-.05-.19-.05-.44-.15-.61-.02-.05-.06-.09-.08-.14-.01-.04-.01-.09-.01-.13-.01-.35-.12-.68-.23-1.01-.05-.14-.08-.29-.15-.42,0,0-.01-.02-.02-.03-.07-.12-.09-.3-.14-.44-.04-.14-.1-.26-.16-.39-.12-.28-.21-.57-.27-.87,0-.02,0-.05-.03-.07,0,0-.02,0-.04,0-.68-.06-1.36-.05-2.04-.05-.05,0-.88-.04-.88-.01-.06.27-.13.52-.2.79-.02.08-.04.17-.06.26l-.04.19c-.05.26-.1.51-.16.79-.12.61-.24,1.21-.39,1.81-.02.07-.03.14-.06.22-.04.12-.12.23-.15.35-.02.08-.02.16-.03.24-.05.53-.3,1.08-.45,1.6-.22.75-.36,1.5-.53,2.26-.05.25-.13.48-.2.72-.03.09-.06.19-.09.29-.07.22-.17.45-.2.68-.03.19-.03.37-.08.55,0,.32-.11.63-.19.94-.08.33-.13.65-.2.98-.07.29-.13.58-.16.88,0,.05-.01.11-.03.17-.02.05-.06.1-.09.16-.11.18-.18.39-.25.58-.08.23-.15.46-.19.69-.06.36-.04.74-.15,1.08-.04.12-.05.23-.07.36-.03.15-.09.29-.14.44-.07.24-.09.49-.18.73-.08.22-.19.57-.15.8,0,0,0,.02.01.03,0,0,.02,0,.04,0,.12,0,.22-.03.33,0,.09.02.17-.03.26-.03.22,0,.44.02.66.02.14,0,.29,0,.45,0,.06.02.12.03.18.04.08,0,.16,0,.24,0,.36-.03.72-.03,1.07-.07.06,0,.03-.38.03-.43,0-.26.08-.49.16-.75.06-.2.12-.41.14-.62.01-.19.19-.77.19-.77.09-.03.23.02.33.02.17,0,.34-.02.5-.01.68.03,1.32.03,2,0,.34,0,.73.02,1.06,0,.17,0,.34,0,.51-.01.08,0,.15,0,.23,0,.02.08.02.17.05.25l.13.33c.05.13.05.28.08.42.05.21.1.42.14.62.07.31.13.61.2.91.08,0,.16,0,.24,0,.11.06.17.09.29.07.13-.02.25-.01.39-.01.3,0,.6.01.89.02h.15s.08-.01.13-.02c.2-.04.45-.06.66-.02.05,0,.57.03.57.03-.07-.29-.15-.58-.23-.87h0ZM60.92,13.31c-.14,0-.38,0-.42,0-.15-.02-.31-.06-.46-.05-.36.02-.73,0-1.09,0-.28,0-.56.02-.84.03.05-.12.02-.29.05-.43.04-.19.1-.37.13-.56.03-.24.09-.46.14-.7.2-.67.36-.82.49-1.52.09-.46.2-.9.28-1.36.07-.4.11-.8.26-1.17.05.26.07.59.2.83.05.1.08.23.1.34.05.25.09.49.14.74,0,.05.02.1.04.15.02.04.04.08.06.12.05.12.01.26.05.39.01.06.04.11.06.17.01.06.01.12.02.18.02.26.13.5.2.75.04.17.06.35.12.51.09.28.26.51.36.79.05.13.06.26.1.39.05.14.09.24.12.4,0,0-.03.01-.09,0h0Z"/>
  <path class="st0" d="M54.39,28.32s-.15.01-.17.01c-.08,0-.17,0-.25,0-.29,0-.58,0-.87,0-.19,0-.39-.01-.59,0h-.07c0,.16-.01.32-.01.48h0s0,.01.01.01c.13,0,.3-.03.41.05.02.01.03.03.05.05.03.03.06.06.08.1,0,.03.02.07,0,.14,0,0,0,0,0,0,0,.06-.03.09-.05.14-.03.06-.06.12-.09.19-.03.08-.07.15-.12.22-.01-.02-.05.04-.1.1-.05.06-.11.14-.14.16-.04.02-.08.11-.11.15-.04.05-.08.1-.12.15-.05.07-.08.15-.15.22h-.01c-.04-.05-.08-.11-.11-.18,0-.02-.01-.03-.02-.05-.02-.04-.06-.07-.09-.11-.02-.03-.04-.07-.06-.1-.05-.07-.09-.15-.16-.2,0-.01,0-.03.01,0-.12-.15-.23-.32-.33-.49-.05-.08-.09-.16-.12-.24,0-.03-.02-.07-.01-.1,0-.01.02-.04.03-.05.01-.02.02-.04.04-.06.04-.03.09-.04.13-.03.08,0,.17,0,.25,0,.08,0,.15-.03.23-.02-.01,0-.02-.17-.02-.2,0-.05,0-.09,0-.15,0-.02,0-.1.01-.18h-.31c-.23,0-.48-.03-.71,0-.1,0-.2.01-.3.02-.08,0-.18.01-.25,0-.05,0-.11,0-.16.01h0c-.14-.01-.27-.01-.41-.01h-.02s-.01,0-.02,0c-.01,0-.03,0-.04,0,0,0-.46,0-.46,0,0,.05-.04.55-.02.55h.34s.06,0,.09,0c.07.02.14.06.21.09.05.02.1.07.14.11.03.03.06.06.08.1.02.03.04.06.06.09.07.07.12.19.17.27.03.04.05.09.08.13,0,0,0,.01.02.03h0s.05.08.08.12c.05.08.1.16.17.24.2.25.34.54.54.79.03.04.07.09.11.14.09.13.1.26.1.41v.63c0,.06-.02.11-.04.17,0,.02-.01.04-.03.06-.01.02-.04.04-.06.06-.06.05-.11.08-.19.09-.06,0-.13,0-.21,0h.02c-.06,0-.2.02-.19,0-.04,0-.04,0-.07,0-.01,0-.03.02-.05.02-.01,0-.06,0-.07,0h0c0,.14.01.28-.02.41.1,0,.2.01.31.01h1.29c.27,0,.54.03.8.01,0,0,.04,0,.11,0,.06,0,.14,0,.19,0,0,0,.08,0,.08,0,.01-.15.02-.3.01-.44v-.02c-.06,0-.12,0-.18,0-.08,0-.17,0-.25,0-.04,0-.08,0-.12-.01-.13-.03-.25-.08-.29-.22-.01-.05-.01-.12-.02-.18,0-.06.02-.11.01-.17,0-.03-.01-.06-.02-.09v-.07c0-.13.01-.27,0-.4,0-.02,0-.05,0-.08,0-.03.03-.05.05-.08.02-.04.03-.09.05-.13.04-.08.12-.14.18-.21.06-.06.1-.15.16-.22.04-.04.06-.09.08-.14,0-.02.02-.04.04-.06.06-.08.1-.17.18-.24.01,0,.03-.02.04-.04,0-.01.01-.03.02-.04,0-.02.02-.04.04-.06.04-.06.07-.14.12-.19.05-.05.06-.12.09-.19.03-.06.09-.12.13-.18.04-.05.08-.11.11-.17.02-.04.05-.09.08-.14,0,0,0,0,0,0,.03-.02.05-.06.09-.08.03-.02.06-.03.1-.05.1-.04.18-.08.29-.09.07,0,.13,0,.2,0v-.03c0-.17-.02-.35,0-.52h-.01Z"/>
  <path class="st0" d="M50.35,29.65s0,.01.02.04h0s0-.02-.02-.03c0,0,0,0,0-.01h0Z"/>
  <path class="st0" d="M61.59,29.62s0-.01,0-.02h0c-.03-.08-.07-.16-.11-.24-.02-.04-.04-.08-.06-.12-.03-.04-.06-.07-.1-.11-.02-.02-.04-.03-.06-.05-.03-.03-.06-.06-.1-.09-.06-.05-.13-.09-.2-.13-.02-.02-.04-.05-.06-.07-.07-.07-.16-.11-.23-.18-.02-.01-.04-.03-.06-.04h-.03s-.07-.06-.12-.07h.01c-.06-.04-.14-.03-.21-.06-.09-.03-.17-.08-.26-.1-.04,0-.09-.01-.14-.02l-.28-.04c-.06,0-.11-.01-.17-.01-.05,0-.09-.01-.14-.02-.1,0-.2,0-.31.01-.15,0-.29.04-.43.07-.06.01-.13.02-.19.05-.03.01-.08.03-.1.04-.09.03-.18.09-.26.14-.09.06-.19.11-.29.17-.08.05-.15.11-.22.16,0,0-.13.13-.14.15-.04.05-.09.1-.13.16-.09.11-.19.22-.25.36-.02.05-.06.11-.08.17-.01.04-.03.08-.04.12-.04.1-.07.2-.09.3-.02.09-.01.19,0,.28,0,.08,0,.15,0,.23,0,.09.02.18.02.28v.14c.01.08.06.16.08.24.01.09.05.19.08.28.02.08.05.15.1.22.06.09.15.16.21.25.05.08.08.15.16.21,0,0-.02-.02-.03-.02.08.08.12.08.15.14h-.01c.11.14.24.13.37.26,0,0-.01-.01-.01-.02.35.24.8.37,1.22.39.2,0,.39.01.59-.01.13-.02.26-.05.39-.07.04,0,.07-.02.11-.03.09-.03.18-.07.26-.1.07-.02.12-.07.19-.1.04-.02.09-.05.13-.07.07-.03.14-.05.2-.1.09-.06.16-.15.23-.24.04-.05.13-.11.14-.17h0c.05-.09.13-.16.18-.25.05-.08.08-.17.13-.25.01-.02.03-.04.04-.07.02-.05.02-.1.04-.16.01-.04.03-.08.04-.12,0-.04.02-.08.03-.12.02-.1.01-.21.02-.32.03-.28.04-.57-.03-.85-.03-.11-.08-.22-.13-.33h0ZM59.66,28.83h-.01.01ZM60.55,30.74c-.02.12-.02.24-.03.36-.01.17-.08.36-.15.52-.04.08-.07.17-.13.24-.05.06-.08.14-.13.2-.05.06-.14.1-.21.15-.02.01-.04.02-.06.04-.01,0-.02.02-.04.03-.01,0-.03.01-.05.02-.03,0-.08.02-.11.04-.14.08-.34.07-.5.04-.1-.02-.2-.05-.3-.08-.08-.03-.15-.05-.21-.11-.02-.02-.06-.03-.09-.05-.03-.02-.05-.06-.07-.09-.05-.05-.12-.11-.15-.18-.03-.08-.08-.14-.13-.2-.03-.03-.06-.07-.08-.11-.02-.03-.03-.07-.04-.11-.02-.1-.07-.21-.07-.31,0-.09-.01-.18-.04-.28,0-.04-.01-.08-.01-.12,0-.13,0-.26,0-.39,0-.06,0-.13.01-.18.01-.05.03-.09.05-.14.03-.11.03-.23.08-.33.02-.05.05-.08.06-.13.01-.06.03-.11.08-.15,0,0,.02-.02.03-.03.03-.04.03-.09.06-.13.03-.04.04-.08.09-.1,0,0,0,0-.01,0,.11-.12.26-.19.39-.27h.01s.1-.03.1-.03c.06,0,.12,0,.18,0,.13-.01.25-.04.38-.02.05,0,.11.01.16.03.03,0,.08.03.11.03.06,0,.06-.02.07.04,0-.01.03,0,.02,0,.01-.01.09.03.09.06,0-.03.02,0,.06.03-.05,0,.07.07.12.12.04.04.06.11.09.16.04.06.06.15.11.21.02.02.05.05.07.07.02.02.03.05.04.08.05.11.07.21.07.34,0,.06,0,.13.01.19.01.05.05.09.06.14,0,.07,0,.13,0,.19v.02c0,.06,0,.13,0,.19h.02Z"/>
  <path class="st0" d="M77.01,29.62s0-.01,0-.02h0c-.03-.08-.07-.16-.11-.24-.02-.04-.04-.08-.06-.12-.03-.04-.06-.07-.1-.11-.02-.02-.04-.03-.06-.05-.03-.03-.06-.06-.1-.09-.06-.05-.13-.09-.2-.13-.02-.02-.04-.05-.06-.07-.07-.07-.16-.11-.23-.18-.02-.01-.04-.03-.06-.04h-.03s-.07-.06-.12-.07h.01c-.06-.04-.14-.03-.21-.06-.09-.03-.17-.08-.26-.1-.04,0-.09-.01-.14-.02l-.28-.04c-.06,0-.11-.01-.17-.01-.05,0-.09-.01-.14-.02-.1,0-.2,0-.31.01-.15,0-.29.04-.43.07-.06.01-.13.02-.19.05-.03.01-.08.03-.1.04-.09.03-.18.09-.26.14-.09.06-.19.11-.29.17-.08.05-.15.11-.22.16,0,0-.13.13-.14.15-.04.05-.09.1-.13.16-.09.11-.19.22-.25.36-.02.05-.06.11-.08.17-.01.04-.03.08-.04.12-.04.1-.07.2-.09.3-.02.09-.01.19,0,.28,0,.08,0,.15,0,.23,0,.09.02.18.02.28v.14c.01.08.06.16.08.24.01.09.05.19.08.28.02.08.05.15.1.22.06.09.15.16.21.25.05.08.08.15.16.21,0,0-.02-.02-.03-.02.08.08.12.08.15.14h-.01c.11.14.24.13.37.26,0,0-.01-.01-.01-.02.35.24.8.37,1.22.39.2,0,.39.01.59-.01.13-.02.26-.05.39-.07.04,0,.07-.02.11-.03.09-.03.18-.07.26-.1.07-.02.12-.07.19-.1.04-.02.09-.05.13-.07.07-.03.14-.05.2-.1.09-.06.16-.15.23-.24.04-.05.13-.11.14-.17h0c.05-.09.13-.16.18-.25.05-.08.08-.17.13-.25.01-.02.03-.04.04-.07.02-.05.02-.1.04-.16.01-.04.03-.08.04-.12,0-.04.02-.08.03-.12.02-.1.01-.21.02-.32.03-.28.04-.57-.03-.85-.03-.11-.08-.22-.13-.33h0ZM75.07,28.83h-.01.01ZM75.97,30.74c-.02.12-.02.24-.03.36-.01.17-.08.36-.15.52-.04.08-.07.17-.13.24-.05.06-.08.14-.13.2-.05.06-.14.1-.21.15-.02.01-.04.02-.06.04-.01,0-.02.02-.04.03-.01,0-.03.01-.05.02-.03,0-.08.02-.11.04-.14.08-.34.07-.5.04-.1-.02-.2-.05-.3-.08-.08-.03-.15-.05-.21-.11-.02-.02-.06-.03-.09-.05-.03-.02-.05-.06-.07-.09-.05-.05-.12-.11-.15-.18-.03-.08-.08-.14-.13-.2-.03-.03-.06-.07-.08-.11-.02-.03-.03-.07-.04-.11-.02-.1-.07-.21-.07-.31,0-.09-.01-.18-.04-.28,0-.04-.01-.08-.01-.12,0-.13,0-.26,0-.39,0-.06,0-.13.01-.18.01-.05.03-.09.05-.14.03-.11.03-.23.08-.33.02-.05.05-.08.06-.13.01-.06.03-.11.08-.15,0,0,.02-.02.03-.03.03-.04.03-.09.06-.13.03-.04.04-.08.09-.1,0,0,0,0-.01,0,.11-.12.26-.19.39-.27h.01s.1-.03.1-.03c.06,0,.12,0,.18,0,.13-.01.25-.04.38-.02.05,0,.11.01.16.03.03,0,.08.03.11.03.06,0,.06-.02.07.04,0-.01.03,0,.02,0,.01-.01.09.03.09.06,0-.03.02,0,.06.03-.05,0,.07.07.12.12.04.04.06.11.09.16.04.06.06.15.11.21.02.02.05.05.07.07.02.02.03.05.04.08.05.11.07.21.07.34,0,.06,0,.13.01.19.01.05.05.09.06.14,0,.07,0,.13,0,.19v.02c0,.06,0,.13,0,.19h.02Z"/>
  <path class="st0" d="M66.3,31.13s-.01,0-.02.01c0,0,0,0-.01.01,0,0,.02,0,.04-.02h0Z"/>
  <path class="st0" d="M67.04,29.93s0,0,.01,0t-.01,0Z"/>
  <path class="st0" d="M67.45,30.23s0,.01.02.02c0,0-.01-.02-.02-.02Z"/>
  <path class="st0" d="M67.45,30.23s0-.01-.01-.02c0,0,.01.01.01.02Z"/>
  <path class="st0" d="M69.81,32.69c0-.05,0-.1,0-.14,0-.05,0-.08,0-.1v-.06c-.11.01-.23.02-.35,0-.1-.01-.2-.05-.29-.09-.07-.03-.14-.05-.2-.08-.01,0-.02-.01-.04-.03h.02c-.09-.07-.16-.14-.23-.23,0,0-.01-.01-.02-.02,0,0,0-.02,0-.03,0-.04-.04-.07-.06-.1-.09-.1-.17-.22-.24-.33-.04-.06-.09-.18-.17-.22h0s-.09-.1-.14-.17c-.08-.12-.16-.24-.25-.35-.08-.12-.23-.26-.26-.36-.04-.05-.09-.1-.13-.15,0,0,0,0,0-.01,0-.02.02-.03.04-.04.07-.03.11-.1.16-.16.14-.15.32-.28.47-.43.11-.1.22-.23.36-.29l.21-.09s.05-.02.08-.04c.08-.06.12-.13.2-.17.09-.05.2-.1.3-.1.1,0,.19,0,.29.01,0-.04-.02-.58-.04-.58-.25,0-.5,0-.75.02-.21.01-.42,0-.64-.02-.07,0-.82,0-.83.03,0,.17,0,.35,0,.52.08,0,.16,0,.23,0,.08,0,.16.03.22.08.01,0,.02.02.03.04,0,0,0,.02,0,.03,0,.1,0,.17-.05.24-.06.08-.13.16-.2.24-.15.15-.31.29-.47.44h0c-.22.22-.13.08-.44.34l.02-.02c-.08.05-.17.15-.29.24-.04,0-.1.08-.13.12,0,.01-.13.12-.13.12,0-.14.02-.28.01-.41,0-.08-.04-.21-.02-.29v.02c0-.25,0-.49-.01-.74,0-.19.08-.31.25-.39.03-.01.45-.12.45-.09,0-.03,0-.41,0-.5h0v-.02h0s0,0,0,0c-.3,0-.6,0-.89,0-.11,0-.21,0-.32,0-.02,0-.17,0-.18,0-.26,0-.58.03-.78,0h.02s-.08,0-.15,0c-.04,0-.17-.01-.2,0h0s0,0,0,0c0,0,0,0,0,.02,0,.17,0,.34-.01.51.11-.01.21-.01.33,0,0,0,0,0,0,0,.06.01.19.03.25.05.07.03.13.05.18.12.04.06.05.14.07.2.01.05.01.11.01.16,0,.19-.02.37-.03.56,0,.03,0,.06,0,.09-.01.18,0,.36.02.53,0,.13.05.31,0,.42-.04.09,0,.2,0,.31,0,.08-.02.16,0,.24,0,.06.02.1.02.17v.22s0,.1-.01.15c-.01.08-.06.13-.11.2,0,0,0-.01.01-.02-.03.04-.07.06-.12.07-.01,0-.02,0-.03,0,0,0-.02,0-.02.01-.03.02-.08.02-.12.01-.07,0-.14,0-.2,0-.03,0-.15,0-.17.01-.03.03,0,.19,0,.23,0,.11,0,.19-.02.3,0,.01.31,0,.33,0,.05,0,.09.02.14.02.06,0,.11,0,.17-.01.07,0,.15,0,.22,0,.07,0,.15.02.21,0,.02,0,.04-.01.06-.02.03,0,.06,0,.09.02.05.01.11.01.16.01h.26c.14,0,.26,0,.4,0h.02s.01,0,.02,0c.05-.01.1-.02.15-.02.03,0,.27,0,.28,0,0-.18,0-.35-.02-.53-.08,0-.19,0-.29-.02-.1-.01-.2-.04-.25-.1.02.01.05.03.06.04-.16-.08-.19-.21-.17-.34v.02c.05-.33-.14-.67.2-.84.14-.11.28-.24.41-.36.14.19.3.38.44.56.05.06.1.12.14.19.14.2.27.41.34.64,0,0,0-.01,0-.02.02.05-.06.2-.11.18,0,0-.11.04-.13.05-.07.02-.14.03-.21.03-.02,0,0,.24,0,.26s0,.24,0,.24c.19,0,.38,0,.57,0,.06,0,.12-.01.18-.02.2-.02.4.01.6,0,0,0,0,.01-.02.01.15,0,.24-.01.29,0h-.01c.22-.02.05-.03.22-.02.01,0,.03,0,.05,0h0s.03,0,.04,0,.03,0,.05,0h.59s-.08,0,.02,0c0,0,0,0,0-.01h.03v-.05s0-.11,0-.15v-.04Z"/>
  <path class="st0" d="M85.21,32.53s-.02-.08-.01-.13c-.15.02-.28.01-.43,0-.05,0-.29-.1-.31-.21-.11-.07-.06-.28-.06-.4,0-.17,0-.34,0-.51,0-.14,0-.29,0-.44,0-.08.02-.2,0-.28t0,0c-.01-.22,0-.47,0-.69h0c.01-.29-.05-.56.04-.85.02-.08.11-.08.18-.13.06-.05.18-.07.26-.08.11,0,.22-.01.33,0,0-.17.01-.34.02-.51-.05,0-.1.01-.15,0-.07,0-.13,0-.2,0-.14,0-.27,0-.41,0h-.13c-.15.01-.27.03-.42.02-.1,0-.02-.01.02-.02-.2.03-.4,0-.6,0-.21,0-.43,0-.65.03,0,0,0,0,.02,0-.01,0-.03,0-.03,0,0,.03,0,.49,0,.49h.23c.06,0,.13,0,.19.02.09.03.17.1.21.19.03.07.05.14.06.22,0,.02,0,.17.02.18,0,0-.01.04-.02.07,0,.12,0,.25.01.38,0,.09.03.24-.02.32,0,.01-.02.02-.02.03,0,0,0,.02-.02.03-.02.02-.05.03-.08.02-.39-.02-.79-.01-1.18-.01-.32.03-.17-.01-.58-.01h.02c-.1.02-.06-.09-.07-.24,0-.13-.02-.26-.02-.39,0-.06,0-.13,0-.19,0-.09.02-.18.03-.26,0-.07,0-.15.06-.2.03-.02.07-.05.09-.08,0,0,0-.01,0-.02,0-.01.02-.02.03-.02.04-.02.48-.11.48-.03,0-.16,0-.33,0-.49-.09,0-.18,0-.27-.02-.02,0-.04,0-.06,0-.09,0-.19.02-.28,0-.02,0-.04,0-.07,0-.04,0-.08.03-.13.03-.03,0-.08-.01-.12-.01-.1,0-.2,0-.3,0-.21,0-.43-.03-.64-.03-.11,0-.22,0-.34,0s-.24-.01-.35,0c.01.07,0,.15.02.23,0,.09,0,.21,0,.3.16,0,.29-.04.44.01.04.01.07.02.11.04,0,0,.01,0,.01,0v.02s.02.03.04.03c.05.02.1.06.13.11.08.12.06.3.06.44,0,.07,0,.15,0,.23,0,.04-.04.23-.02.25,0,.2-.01.4,0,.6,0,.1-.01.21-.02.32,0,.13-.02.27,0,.4.03.14.02.27.02.41.02-.07.03.34.01.21,0,.06,0,.11-.02.18,0,.05,0,.1-.03.15-.02.03-.05.04-.08.06-.08.03-.16.04-.24.05-.08,0-.17.02-.25.02-.08,0-.16-.01-.23-.01,0,0,0,.15,0,.17,0,.06,0,.09.02.15h0c0,.08,0,.16,0,.23,0,.02.37,0,.4.01.18,0,.36,0,.54,0h.24s.19.02.25,0c.12,0,.39.01.35-.01,0,.02.23,0,.36,0h-.02s.13,0,.17,0c.09,0,.17,0,.25,0h0c0-.17,0-.33,0-.48,0,0-.15,0-.16,0-.09,0-.16,0-.24-.05-.05-.02-.1-.02-.15-.04-.08-.03-.14-.11-.15-.19-.03-.2,0-.42,0-.62,0-.21,0-.42,0-.62h0v-.04h0c0-.11.12-.07.24-.06h-.02c.38.04.61-.04,1.02,0-.03,0-.04,0-.05,0,.79-.11.81.15.77.86,0,.17.03.35-.03.51-.06.18-.23.29-.41.3-.11,0-.23,0-.34.02,0,.15.01.3.02.45h.49c.11,0,.22,0,.33-.02.18-.01.35-.02.52,0,.14.01.27.02.41,0,.06,0,.12-.01.18-.02.03,0,.13-.01.15,0,.09-.03.2,0,.3,0,.06,0,.12,0,.18,0,0,0,0,0,.01,0h0c0-.08,0-.16,0-.23,0-.03,0-.06,0-.09h.02ZM81.04,32.92s0,0,.01,0c0,0,0,0-.01,0ZM84.01,32.85h0,.05-.04Z"/>
  <path class="st0" d="M102.64,32.37s-.22.02-.24.02c-.08,0-.17,0-.25-.02h.07s-.04,0-.05-.01c-.29,0-.38-.32-.35-.58,0,0,.01-.36.02-.53-.03-.04,0-.07,0-.11,0-.02,0-.04-.01-.06v-.08c.01-.09.01-.17-.01-.26,0,0,.01.02.02.03,0-.3,0-.59,0-.89,0-.08-.01-.15-.01-.23,0-.03.03-.18.01-.2-.03-.02,0-.17,0-.21,0-.08.01-.17.08-.22.08-.06.17-.09.27-.1.04,0,.09,0,.13,0h.32c0-.16,0-.33,0-.49-.22-.02-.43,0-.65,0-.18,0-.38-.04-.56,0-.07.01-.14,0-.22,0-.17,0-.34-.02-.51-.03-.2,0-.38.05-.58.05-.04.12-.07.25-.11.38-.02.08-.05.17-.08.25-.05.13-.12.26-.14.41-.01.12-.05.26-.13.36l-.15.33c0,.08-.04.13-.08.2-.03.06-.03.14-.04.2-.02.08-.07.15-.11.22-.09.19-.1.44-.22.6-.12-.39-.32-.76-.43-1.15l.02.09s-.06-.17-.1-.27c.01,0,0-.05,0-.09-.02-.1-.08-.2-.11-.3-.03-.09-.06-.18-.09-.27-.12-.34-.26-.67-.44-.98-.2-.03-.41-.04-.61,0-.09.01-.18.02-.27.03h-.14s-.08-.02-.1-.01h0c-.41.03-.21-.01-.74-.01-.15,0-.3,0-.44,0h-.04s-.03.05-.03.09c0,.13-.01.27,0,.4,0-.03.55.03.61.06.13.06.28.26.23.41-.02.1,0,.24,0,.35,0,.13,0,.26-.01.4,0,.08,0,.16,0,.24.01.16,0,.3-.02.46,0,.14-.01.29,0,.43v.08s-.02.04-.02.07c0,.03.02.07.03.1.01.05,0,.1,0,.16-.02.23.03.51-.16.68-.08.07-.2.04-.3.04-.14,0-.28-.01-.42-.01,0,.19,0,.39,0,.58.31,0,.63,0,.94-.02,0,0,.02,0,.02,0,0,0,.18,0,.17,0,.45-.03.72.06,1.16,0,.02-.18.02-.37,0-.55-.11,0-.23,0-.34,0-.1-.01-.2-.04-.26-.12-.02-.03-.04-.06-.05-.09-.03-.06-.06-.12-.09-.18-.05-.1-.05-.22-.05-.33,0-.1-.02-.21,0-.31,0-.02.01-.04.01-.07,0-.06-.01-.12,0-.19,0-.05.02-.09.02-.14,0-.18.01-.35,0-.53,0-.17-.03-.35-.03-.53,0-.05.02-.1.02-.16,0-.08,0-.16,0-.23,0-.15-.02-.3,0-.45.09.14.11.34.21.49h-.01c.08.23.13.35.24.62l-.03-.05c.22.39.3.81.49,1.21,0,0-.01,0-.03-.05.05.13.18.51.19.45-.02,0,.11.29.18.43l-.02-.02s.19.38.13.28c.02.06.05.14.08.2,0,.01.14.29.12.28.22.02.44.02.66.01.16-.24.26-.51.37-.78.19-.47.42-.92.61-1.39-.01.04-.03.08-.04.1.13-.3.15-.39.24-.55v.03c.19-.38.26-.73.46-1.09.09.83,0,2.02-.03,2.95,0,0,.01-.02.02-.03,0,.07-.09.16-.14.19-.1.06-.17.05-.29.04h-.09c-.13,0-.31-.02-.27.16.03.12.04.24.01.36.13-.04.26-.01.4,0,.1,0,.19,0,.29,0,.16,0,.33,0,.49,0,.14,0,.29.03.44.02.1,0,.19-.04.28-.01.09.02.18,0,.27,0h-.02c.16,0,.32-.02.48-.03,0-.11-.03-.22-.03-.33,0-.05,0-.1-.02-.14h.01ZM101.8,32.85h-.02.07-.05Z"/>
  <path class="st0" d="M96.39,29.36v-.02h0s0,0,0,.01h0Z"/>
  <path class="st0" d="M99.64,31.98s-.02.06-.04.09c0,0,.03-.05.04-.09Z"/>
  <path class="st0" d="M89.89,32.92s-.03,0-.04,0c.02,0,.03,0,.04,0Z"/>
  <path class="st0" d="M92.94,32.42c-.13,0-.29-.02-.4-.04-.13-.02-.22-.14-.3-.24-.02-.04-.09-.1-.09-.14,0-.02,0-.05,0-.07,0,0-.01-.01-.02-.02-.05-.04-.07-.13-.08-.2,0-.02,0-.05,0-.08,0-.02-.01-.04-.02-.05-.07-.15-.11-.31-.2-.46-.07-.11-.1-.22-.13-.35,0-.01,0-.03-.01-.05-.01-.02-.03-.04-.05-.06-.05-.05-.07-.15-.1-.22-.03-.09-.05-.18-.07-.27,0-.03,0-.06-.02-.09-.02-.04-.06-.06-.08-.09-.06-.08-.06-.19-.11-.28-.03-.05-.08-.09-.1-.15-.02-.06-.02-.14-.04-.2-.03-.11-.1-.21-.16-.31-.05-.09-.11-.19-.13-.3,0-.03,0-.06-.01-.09-.01-.04-.05-.08-.07-.12-.03-.08-.06-.15-.1-.23,0,0,0-.01-.01-.02,0,0-.02,0-.03,0-.19,0-.38.02-.57.03,0,0-.02,0-.02,0-.03.02-.03.11-.05.15,0,.02-.02.04-.03.06,0,0,0,.08,0,.04-.04.21-.05.09-.14.34v-.02s-.03.14-.07.23c-.02.06-.03.13-.05.19-.02.06-.07.1-.09.17-.01.06-.04.1-.06.16-.02.05-.02.1-.04.16h0c-.02.13-.13.26-.18.39-.06.19-.16.37-.22.56-.06.15-.15.27-.2.42-.04.11-.05.24-.09.36-.05.17-.15.33-.21.49-.02.06-.04.13-.08.18-.08.13-.22.09-.35.15-.1.04-.26.04-.37.06,0,.17,0,.34.01.51v.02s.01,0,.02,0c.24.02.53-.04.78,0-.05-.03.2-.03.13-.01.25.02.62,0,.85,0h0c.06.01.12.01.19.01.03,0,.14.02.17,0,.03-.02,0-.07,0-.11,0-.06,0-.12.01-.17.01-.08.02-.15.04-.23-.04,0-.47-.06-.47-.03,0-.02-.14-.04-.15-.04-.05-.01-.09-.05-.11-.11-.05-.11-.03-.24,0-.35.02-.1,0-.14.08-.23.04-.05.06-.12.1-.17,0,0,0-.01.01-.02h.02c.17,0,.33-.01.5,0,.03,0,.05,0,.08.01.14.02.3,0,.43,0,.06,0,.11-.02.17-.02.05,0,.11.01.17,0h.06c.2.06.3.44.3.62,0,.09-.02.2-.09.27-.06.06-.23.13-.32.09h.02s-.2.02-.24.03c0,.1-.02.22,0,.32,0,.02,0,.1,0,.12,0,0,.01,0,.02,0,.3,0,.61,0,.91,0,.14,0,.28-.02.42-.02.08,0,.19.03.26,0,0,0,0,0-.01,0,.1.03.26.01.37.01.15,0,.3,0,.45.01.01,0,.03,0,.03-.01v-.02c-.01-.09-.01-.19,0-.28,0-.06,0-.11,0-.17v-.02ZM90.24,30.91h0s0,0,0,0c-.25,0-.49,0-.74.01.06-.16.14-.31.21-.47.02-.05.05-.11.08-.16.02-.04.04-.08.05-.12.01-.04.02-.08.04-.12.02-.05.05-.09.07-.14.01-.03.03-.07.06-.1,0,0,.01-.02.02-.03,0,0,0-.02,0-.03,0-.04.03-.09.04-.13,0-.02.01-.04.02-.06,0-.01,0-.04.01-.04,0,.02,0,.04,0,.06,0,.03.02.04.03.07.03.07.06.15.09.22.01.04.03.09.05.13,0,.03.02.07.03.1.01.05.02.1.03.16,0,.03.01.05.03.07.01.03.02.06.03.08,0,.01.02.02.03.04,0,0,0,0,0,.01,0,0,0,.01,0,.02,0,.03.02.06.03.09.01.02.02.05.04.07.02.04.05.07.08.11.03.04.05.09.04.14-.14,0-.28,0-.42,0h0ZM91.3,32.85h0,.03-.02Z"/>
  <path class="st0" d="M107.38,32.92s-.03,0-.04,0c.02,0,.03,0,.04,0Z"/>
  <path class="st0" d="M110.43,32.42c-.13,0-.29-.02-.41-.04-.13-.02-.22-.14-.3-.24-.02-.04-.09-.1-.09-.14,0-.02,0-.05-.01-.07,0,0-.01-.01-.03-.02-.05-.04-.07-.13-.08-.2,0-.02,0-.05,0-.08,0-.02-.01-.04-.03-.05-.07-.15-.11-.31-.19-.46-.07-.11-.1-.22-.13-.35,0-.01,0-.03-.01-.05-.01-.02-.03-.04-.05-.06-.05-.05-.07-.15-.1-.22-.03-.09-.05-.18-.07-.27,0-.03,0-.06-.02-.09-.02-.04-.06-.06-.08-.09-.06-.08-.06-.19-.11-.28-.03-.05-.08-.09-.1-.15-.02-.06-.03-.14-.04-.2-.03-.11-.1-.21-.16-.31-.05-.09-.11-.19-.13-.3,0-.03,0-.06-.01-.09-.01-.04-.05-.08-.07-.12-.03-.08-.06-.15-.1-.23,0,0,0-.01-.01-.02,0,0-.02,0-.03,0-.19,0-.38.02-.57.03-.01,0-.02,0-.03,0-.03.02-.03.11-.05.15,0,.02-.02.04-.03.06,0,0,0,.08,0,.04-.04.21-.05.09-.14.34v-.02s-.03.14-.07.23c-.03.06-.04.13-.05.19-.02.06-.07.1-.09.17-.01.06-.04.1-.06.16-.02.05-.02.1-.04.16h.01c-.02.13-.13.26-.18.39-.06.19-.16.37-.22.56-.06.15-.15.27-.21.42-.04.11-.05.24-.09.36-.05.17-.15.33-.21.49-.02.06-.04.13-.08.18-.08.13-.22.09-.35.15-.1.04-.26.04-.37.06,0,.17,0,.34.01.51v.02s.01,0,.03,0c.24.02.53-.04.78,0-.05-.03.2-.03.13-.01.25.02.62,0,.85,0h0c.06.01.12.01.19.01.03,0,.14.02.17,0,.03-.02,0-.07,0-.11,0-.06,0-.12.01-.17.01-.08.03-.15.04-.23-.04,0-.47-.06-.47-.03,0-.02-.14-.04-.15-.04-.05-.01-.09-.05-.11-.11-.05-.11-.03-.24,0-.35.02-.1,0-.14.08-.23.04-.05.06-.12.1-.17,0,0,.01-.01.01-.02h.02c.17,0,.33-.01.5,0,.03,0,.05,0,.08.01.14.02.3,0,.43,0,.06,0,.11-.02.17-.02.05,0,.11.01.17,0h.06c.21.06.3.44.3.62,0,.09-.02.2-.09.27-.06.06-.23.13-.32.09h.02s-.2.02-.24.03c0,.1-.02.22,0,.32,0,.02,0,.1,0,.12,0,0,.01,0,.02,0,.3,0,.61,0,.91,0,.14,0,.28-.02.42-.02.08,0,.19.03.26,0,0,0-.01,0-.02,0,.1.03.26.01.37.01.15,0,.3,0,.45.01.01,0,.03,0,.03-.01v-.02c-.01-.09-.01-.19,0-.28,0-.06,0-.11,0-.17v-.02ZM107.73,30.91h0s0,0,0,0c-.25,0-.49,0-.74.01.06-.16.14-.31.21-.47.02-.05.05-.11.08-.16.02-.04.04-.08.05-.12.01-.04.02-.08.04-.12.02-.05.05-.09.07-.14.01-.03.03-.07.06-.1.01,0,.02-.02.02-.03,0,0,0-.02,0-.03,0-.04.03-.09.04-.13,0-.02.01-.04.02-.06,0-.01,0-.04.01-.04,0,.02,0,.04.01.06,0,.03.02.04.03.07.03.07.06.15.09.22.01.04.03.09.05.13.01.03.03.07.03.1.01.05.02.1.03.16,0,.03.01.05.03.07.01.03.02.06.03.08.01.01.02.02.03.04,0,0,0,0,0,.01,0,0,0,.01,0,.02.01.03.02.06.03.09.01.02.02.05.04.07.03.04.05.07.08.11.03.04.05.09.04.14-.14,0-.28,0-.42,0h0ZM108.79,32.85h0,.03-.02Z"/>
  <path class="st0" d="M119.27,32.33h0s.01,0,.01,0h-.01Z"/>
  <path class="st0" d="M119.13,30.22h.01s0,0-.01,0h0s0,0,0,0Z"/>
  <path class="st0" d="M120.55,32.65s.02-.02.04-.03c.02,0,.03-.01.06-.05.03-.03.03-.02.04-.04.01-.02,0,0,.03-.02.03-.02.06-.03.07-.04.02-.02.04-.04.05-.07.02-.03.04-.07.07-.1,0,0,.01-.02.02-.02.01-.02.03-.06.05-.09.01-.05,0-.02-.02,0,.02-.03.04-.07.05-.11.01-.04.02-.08.04-.12.02-.04.03-.09.04-.14,0-.05,0-.09,0-.14,0-.03,0-.07,0-.09v.04s0-.05,0-.07v-.05s0-.02-.01-.04c-.02-.06-.05-.12-.08-.18,0-.01-.02-.03-.03-.04-.01,0-.02,0-.03-.02,0,0,0-.01-.01-.02-.01-.01-.03-.02-.04-.03-.02-.01-.04-.04-.06-.06-.02-.02-.04-.04-.07-.06-.01-.01-.01-.02-.02-.04-.01-.01-.02-.03-.04-.04-.04-.03-.07-.06-.11-.09-.01,0-.01-.01-.03-.02-.01,0-.03,0-.05-.01-.05-.01-.09-.05-.13-.08-.03-.01-.05-.03-.07-.04-.03-.01-.06-.03-.1-.04-.03,0-.06-.01-.09-.04,0,0-.09-.04-.1-.02-.01,0-.03-.02-.04-.02-.02-.01-.04-.01-.06-.02,0,0-.02,0-.03-.01-.03-.01-.07-.02-.11-.03.05-.03.1-.05.15-.08.06-.03.12-.07.17-.07.03-.02.06-.04.1-.06.08-.06.16-.11.23-.18.03-.02.06-.05.1-.07.01,0,0,0,0,0,.1-.07.17-.2.22-.31.03-.07.04-.15.04-.22v-.16c0-.07,0-.15-.03-.22-.03-.06-.07-.11-.1-.16-.02-.03-.04-.05-.05-.06.01,0,.03.03.03.04-.04-.03-.09-.08-.14-.14.02,0-.01-.05-.06-.09-.05-.04-.11-.08-.13-.11-.17-.08-.32-.19-.5-.22-.21-.03-.41-.05-.62-.05h-.56s-.1-.01-.13,0h.03c-.14-.02-.22.01-.34.02,0-.02-.11-.03-.17-.03,0,0-.25,0-.29.01-.24.01-.48-.01-.72-.01h-.27c-.07,0-.14.02-.2,0-.01,0-.03-.01-.04,0-.03,0-.01.1-.02.13-.01.06-.01.12-.01.18,0,.08.01.16.02.24,0,0,0,.02,0,.03.01,0,.03,0,.03,0,.15-.02.29-.02.43,0,.04,0,.08.01.12.03.07.03.13.1.19.14,0,0,0,.09.03.07-.02.02,0,.08.01.1.01.05.01.1.01.16,0,.12-.01.25-.01.38,0,.12.01.24,0,.36,0,.05-.01.11-.01.17v-.04s0,0,0,.03h0c0,.08-.01.16,0,.24,0,.14.05.27.04.41,0,.23-.01.47-.01.7,0-.01,0-.02,0-.02-.01.13,0,.26,0,.4,0,.16-.07.3-.23.35-.08.02-.17.03-.25.02-.11,0-.22,0-.34-.02-.05,0-.01.11,0,.14.01.11,0,.23,0,.35h.03s.01.02.01.01h0s.01-.01.01-.01h0s.01.01.01.01h.3l.69.04c.25,0,.5,0,.74-.02.08,0,.18.01.27.02.14,0,.28.01.42.01.17,0,.34,0,.51,0,.1,0,.2,0,.3-.01.1,0,.19-.04.28-.06.04,0,.08,0,.13-.01s.09-.02.13-.04c.05-.02.1-.04.14-.07,0,0,.04-.03.04-.03h.01ZM118.35,29.59s0-.04.01-.06c0-.02,0-.04,0-.06v-.04s.01-.07.01-.1c0-.03.01-.06.01-.09,0-.05,0-.11,0-.17,0-.05,0-.1,0-.15v-.02s0-.04,0-.07c.03,0,.06,0,.09,0h.01s0,0,.01,0c.01,0,.03,0,.04,0,.04,0,.09,0,.14,0,.11,0,.21.01.32.02.03,0,.07,0,.1.01.03,0,.06.02.09.04,0,0,0,0,.02,0,0,0,.01,0,.01.01,0,0,.01,0,.01.01.01,0,.01.01.03.02.02,0,.04.01.03.04h.03s.03.03.03.05c0,0,0,.02.01.02,0,0,0,0,.01,0,0,0,0,0,0,0,.02.03.03.06.05.09,0,0,.01.01.01.02.01.02.03.05.04.07.01.02.02.04.03.07.01.03.03.06.04.1.01.03.01.06.02.09.01.06,0,.12,0,.18,0,0,0,.02,0,.03,0,0,0,.01,0,.02-.02.05-.04.09-.08.14-.02.02-.04.04-.06.06-.02.02-.04.05-.07.07-.02.02-.04.05-.06.08-.06.09-.15.11-.26.11-.06,0-.19.05-.23.02,0,0,0,0,0,0-.06-.01-.12-.02-.19-.02h-.15s-.03,0-.04,0h-.01s-.03-.02-.04-.01c0-.05-.01-.1-.01-.15,0-.07,0-.14,0-.22s0-.16-.01-.23c0,0,0-.02,0-.03v-.03h0ZM118.32,32.23h0s0,0,0,0ZM119.87,31.6s0,.03,0,.04c-.01.05-.03.1-.04.15-.01.04-.01.09-.03.13-.01.04-.04.07-.07.1-.06.07-.15.13-.22.19-.02.02-.04.03-.06.05-.01.01-.02.03-.04.04-.02.01-.04.02-.07.03-.04.01-.07.03-.11.04-.03,0-.07,0-.11,0-.03,0-.06,0-.09,0-.03,0-.04.01-.06.02-.02,0-.05,0-.08,0h-.48s-.05,0-.07,0h0v-.12c0-.06.02-.13.03-.2,0-.09-.02-.19.01-.27,0,0-.02-.02-.02-.02v-.06s0-.08,0-.12v-.18s0-.04,0-.06v-.05s.01-.04.01-.06c0-.05.01-.1.01-.15,0-.04,0-.07,0-.11,0-.06,0-.12.01-.19v-.05c.05-.01.11-.02.17-.02h.05s.05,0,.07,0,.05,0,.08,0c.06,0,.11,0,.17,0h.05s.01,0,.02,0c.02,0,.05,0,.08,0,.02,0,.05,0,.08,0,.04,0,.08.02.12.01.01,0,.02,0,.03,0,.01,0,.03.02.04.03.04.01.08.05.13.06.01,0,.02,0,.03,0,0,0,0,0,0,0,.03.03.07.03.08.08.01.03.05.05.07.09,0,0,0,.02.02.03.01,0,.02.02.02.03.03.02.04.06.04.09.01,0,.03,0,.03.02.01.03.03.06.04.1,0,.02,0,.05.01.07,0,.03.01.05.02.08.01.03.02.06.02.09h0s-.01.02-.01.02Z"/>
  <path class="st0" d="M135.82,28.84c0-.17-.02-.35,0-.52,0,0-.15.01-.17.01-.08,0-.17,0-.25,0-.29,0-.58,0-.87,0-.19,0-.39-.01-.59,0h-.07c0,.16-.01.32-.01.48h0s0,.01.01.01c.13,0,.3-.03.41.05.02.01.03.03.05.05.03.03.06.06.08.1.01.03.02.07,0,.14,0,0,0,0,.01,0,0,.06-.03.09-.05.14-.03.06-.06.12-.09.19-.03.08-.07.15-.12.22-.01-.02-.05.04-.1.1-.05.06-.11.14-.14.16-.04.02-.08.11-.11.15-.04.05-.08.1-.12.15-.05.07-.08.15-.15.22h-.01c-.04-.05-.08-.11-.11-.18,0-.02-.01-.03-.02-.05-.02-.04-.06-.07-.09-.11-.03-.03-.04-.07-.06-.1-.05-.07-.09-.15-.16-.2,0-.01,0-.03.01,0-.12-.15-.23-.32-.33-.49-.05-.08-.09-.16-.12-.24-.01-.03-.02-.07-.01-.1,0-.01.02-.04.03-.05.01-.02.02-.04.04-.06.04-.03.09-.04.13-.03.08,0,.17,0,.25,0,.08,0,.15-.03.23-.02-.01,0-.02-.17-.02-.2,0-.05,0-.09,0-.15,0-.02,0-.1.01-.18h-.31c-.23,0-.48-.03-.71,0-.1,0-.19.01-.3.02-.08,0-.18.01-.25,0-.05,0-.11,0-.16.01h0c-.14-.01-.27-.01-.4-.01h-.02s-.01,0-.02,0c-.01,0-.03,0-.04,0,0,0-.46,0-.46,0,0,.05-.04.55-.02.55h.34s.06,0,.09,0c.07.02.14.06.21.09.05.02.1.07.14.11.03.03.06.06.08.1.02.03.04.06.06.09.07.07.12.19.17.27.03.04.05.09.08.13,0,0,0,.01.02.03h0s.05.08.08.12c.05.08.1.16.17.24.21.25.34.54.54.79.03.04.07.09.11.14.09.13.1.26.1.41v.63c0,.06-.02.11-.04.17,0,.02-.01.04-.03.06-.01.02-.04.04-.06.06-.06.05-.11.08-.19.09-.06,0-.13,0-.21,0h.02c-.06,0-.2.02-.19,0-.04,0-.04,0-.07,0-.01,0-.03.02-.05.02-.01,0-.06,0-.07,0h0c0,.14.01.28-.02.41.1,0,.2.01.31.01h1.29c.27,0,.54.03.8.01,0,0,.04,0,.11,0,.06,0,.14,0,.19,0,0,0,.08,0,.08,0,.01-.15.02-.3.01-.44v-.02c-.06,0-.12,0-.18,0-.08,0-.17,0-.25,0-.04,0-.08,0-.12-.01-.13-.03-.25-.08-.29-.22-.01-.05-.01-.12-.02-.18,0-.06.02-.11.01-.17,0-.03-.01-.06-.02-.09v-.07c0-.13.01-.27,0-.4,0-.02,0-.05,0-.08,0-.03.03-.05.05-.08.02-.04.03-.09.05-.13.04-.08.12-.14.18-.21.06-.06.1-.15.16-.22.04-.04.06-.09.08-.14,0-.02.02-.04.04-.06.06-.08.1-.17.18-.24.01,0,.03-.02.04-.04,0-.01.01-.03.02-.04,0-.02.02-.04.04-.06.04-.06.07-.14.12-.19.05-.05.06-.12.09-.19.03-.06.09-.12.13-.18.04-.05.08-.11.11-.17.02-.04.05-.09.08-.14,0,0,0,0,0,0,.03-.02.05-.06.09-.08.03-.02.06-.03.1-.05.1-.04.18-.08.29-.09.07,0,.13,0,.2,0v-.03h-.01Z"/>
  <path class="st0" d="M131.77,29.65s0,.01.02.04h0s0-.02-.02-.03c0,0,0,0,0-.01h0Z"/>
  <path class="st0" d="M125.7,32.92s-.03,0-.04,0c.02,0,.03,0,.04,0Z"/>
  <path class="st0" d="M128.75,32.42c-.13,0-.29-.02-.4-.04-.13-.02-.22-.14-.3-.24-.02-.04-.09-.1-.09-.14,0-.02,0-.05,0-.07,0,0-.01-.01-.02-.02-.05-.04-.07-.13-.08-.2,0-.02,0-.05,0-.08,0-.02-.02-.04-.03-.05-.07-.15-.11-.31-.19-.46-.07-.11-.1-.22-.13-.35,0-.01,0-.03-.01-.05-.02-.02-.03-.04-.05-.06-.05-.05-.07-.15-.1-.22-.03-.09-.05-.18-.07-.27,0-.03-.01-.06-.02-.09-.02-.04-.06-.06-.08-.09-.06-.08-.06-.19-.11-.28-.03-.05-.08-.09-.1-.15-.02-.06-.02-.14-.04-.2-.03-.11-.1-.21-.16-.31-.05-.09-.11-.19-.13-.3,0-.03,0-.06-.01-.09-.01-.04-.05-.08-.07-.12-.03-.08-.06-.15-.1-.23,0,0,0-.01-.01-.02-.01,0-.02,0-.03,0-.19,0-.38.02-.57.03,0,0-.02,0-.02,0-.03.02-.03.11-.05.15-.01.02-.02.04-.03.06,0,0,0,.08,0,.04-.04.21-.05.09-.14.34v-.02s-.03.14-.07.23c-.03.06-.03.13-.05.19-.02.06-.07.1-.09.17-.01.06-.04.1-.06.16-.02.05-.02.1-.04.16h0c-.02.13-.13.26-.18.39-.06.19-.16.37-.22.56-.06.15-.15.27-.21.42-.04.11-.05.24-.09.36-.05.17-.15.33-.21.49-.02.06-.04.13-.08.18-.08.13-.22.09-.35.15-.1.04-.26.04-.37.06,0,.17.01.34.01.51v.02s.01,0,.02,0c.24.02.53-.04.78,0-.05-.03.21-.03.13-.01.25.02.62,0,.85,0h0c.06.01.12.01.19.01.03,0,.14.02.17,0,.03-.02,0-.07,0-.11,0-.06,0-.12.01-.17.01-.08.02-.15.04-.23-.04,0-.47-.06-.47-.03,0-.02-.14-.04-.15-.04-.05-.01-.09-.05-.11-.11-.05-.11-.03-.24,0-.35.02-.1.01-.14.08-.23.04-.05.06-.12.1-.17,0,0,0-.01.01-.02h.02c.17,0,.33-.01.5,0,.03,0,.05,0,.08.01.14.02.3,0,.43,0,.06,0,.11-.02.17-.02.05,0,.11.01.17,0h.06c.21.06.3.44.3.62,0,.09-.02.2-.09.27-.06.06-.23.13-.32.09h.02s-.2.02-.24.03c-.01.1-.02.22,0,.32,0,.02,0,.1,0,.12,0,0,.01,0,.02,0,.3,0,.61,0,.91,0,.14,0,.28-.02.42-.02.08,0,.19.03.26,0,0,0,0,0-.01,0,.1.03.26.01.37.01.15,0,.3,0,.45.01.01,0,.03,0,.04-.01v-.02c-.02-.09-.02-.19-.01-.28,0-.06.01-.11.01-.17l-.02-.02ZM126.05,30.91h0s0,0,0,0c-.25,0-.49,0-.74.01.06-.16.14-.31.21-.47.02-.05.05-.11.08-.16.02-.04.04-.08.05-.12.01-.04.02-.08.04-.12.02-.05.05-.09.07-.14.01-.03.03-.07.06-.1,0,0,.01-.02.02-.03,0,0,0-.02,0-.03,0-.04.03-.09.04-.13,0-.02.01-.04.02-.06,0-.01,0-.04.01-.04,0,.02,0,.04.01.06,0,.03.02.04.03.07.03.07.06.15.09.22.01.04.03.09.05.13.01.03.03.07.04.1.01.05.02.1.03.16,0,.03.01.05.03.07.01.03.02.06.03.08,0,.01.02.02.03.04,0,0,0,0,0,.01,0,0,0,.01.01.02.01.03.02.06.03.09.01.02.02.05.04.07.02.04.05.07.08.11.03.04.05.09.04.14-.14,0-.28,0-.42,0h0ZM127.11,32.85h0,.03-.02Z"/>
</svg>